<svg width="193" height="19" viewBox="0 0 193 19" fill="none" xmlns="http://www.w3.org/2000/svg">
<path d="M5.0388 1.18989C9.15154 1.1362 11.7684 2.27205 15.4738 2.8774C17.8576 3.2624 20.4739 3.60963 23.1571 3.85677C29.7326 4.45446 36.9864 4.72162 42.9918 4.99927C49.4255 5.29421 55.9708 5.55681 62.374 5.743C62.7086 5.75249 62.8796 5.83285 63.0409 5.83731C63.62 5.85347 64.3437 5.85901 65.0923 5.86068C66.6412 5.85651 68.2348 6.24866 69.2184 6.62875C72.7535 8.0072 76.2094 10.6973 78.2727 11.2081C78.3826 11.2454 78.4885 11.2802 78.5899 11.3128C79.488 11.6071 80.4438 11.7749 80.7896 12.0024C81.1377 12.058 81.3442 11.9107 81.4356 11.9108C81.4367 11.911 81.4377 11.9113 81.4387 11.9116C81.7306 11.9161 82.4642 12.0688 82.6327 12.0612C82.6571 12.06 82.5092 11.9401 82.9056 11.9803C82.9412 11.983 82.9066 12.0667 83.2454 12.0642C83.3338 12.0717 84.4563 11.8928 84.7727 11.8415C85.8365 11.7516 88.3974 11.2616 89.6011 10.7451C89.7863 10.6731 89.8733 10.587 90.0664 10.5054C90.166 10.4633 90.3318 10.4475 90.3636 10.4331C90.5009 10.3742 90.9678 9.89381 90.9623 10.4077C91.5469 10.0905 91.2997 10.0362 91.2688 9.94267C91.8897 9.60652 92.2794 9.61503 92.3152 9.32426C92.7756 9.04601 93.2103 8.74493 93.565 8.45302C96.7797 5.82125 100.334 4.29331 103.832 3.07509C103.821 3.03917 103.81 3.00325 103.799 2.96732C105.078 2.68327 105.425 2.31536 106.194 2.30626C106.614 2.12823 107.034 1.95477 107.456 1.78524C107.954 1.65089 108.452 1.52151 108.949 1.39638C121.133 -0.108767 130.996 1.26853 141.725 2.19981C142.19 2.25012 142.298 2.34184 143.065 2.42798C143.912 2.52305 145.114 2.56878 146.229 2.70652C147.209 2.82655 148.644 3.08615 149.73 3.24486C149.976 3.28059 150.161 3.2547 150.189 3.25876C150.352 3.28296 150.349 3.36356 150.507 3.3875C150.696 3.41598 150.932 3.38869 151.149 3.42276C151.965 3.54978 152.855 3.65946 152.957 3.67594C152.966 3.67745 152.976 3.67897 152.985 3.68049C153.42 3.75309 153.515 3.84166 153.553 3.84791C154.086 3.93056 153.896 3.83282 154.029 3.85497C154.706 3.96678 155.177 4.20535 156.148 4.1489C156.115 4.21099 156.081 4.27308 156.047 4.33516C156.771 4.45643 156.31 4.22737 156.462 4.21323C156.521 4.21015 158.089 4.40303 158.211 4.41695C158.634 4.47213 158.636 4.55947 158.672 4.56443C158.758 4.57655 159.837 4.58386 160.374 4.70914C161.014 4.85856 160.235 4.96496 160.392 5.01291C160.419 5.02124 161.102 5.06498 161.187 5.12795C161.282 5.19649 160.695 5.14268 160.701 5.1682C160.708 5.18655 161.67 5.39535 161.477 5.46129C161.32 5.53201 160.001 5.30536 159.721 5.31667C159.674 5.31871 159.751 5.4291 159.71 5.42895C159.539 5.43264 156.498 5.11809 156.364 5.07878C156.526 5.05038 156.689 5.02181 156.853 4.99305C156.643 4.96487 156.434 4.9364 156.227 4.90765C156.527 4.90467 156.829 4.9011 157.133 4.89693C156.73 4.46741 155.356 4.69767 155.278 4.8802C155.242 4.96552 156.031 5.29082 155.256 5.33103C155.368 5.36771 155.481 5.4043 155.594 5.4408C155.837 5.43217 156.085 5.42356 156.324 5.41332C156.17 5.37182 156.013 5.32986 155.856 5.2875C155.918 5.26794 155.98 5.24834 156.042 5.22872C156.489 5.23792 156.941 5.24556 157.393 5.25141C157.619 5.29561 157.563 5.36884 157.719 5.40076C159.674 5.79551 158.407 5.42083 159.7 5.58296C159.88 5.64262 160.06 5.70209 160.241 5.76138C160.191 5.58089 160.758 5.74449 161.456 5.72956C161.368 5.77875 161.281 5.82789 161.193 5.87699C162.202 5.93848 164.222 6.38268 163.695 6.02771C163.924 6.07236 164.153 6.11672 164.382 6.16081C164.582 6.12462 164.78 6.08818 164.979 6.05154C165.249 6.07719 165.518 6.10246 165.787 6.12735C165.787 6.15504 165.786 6.18272 165.785 6.21041C165.57 6.19538 165.355 6.18011 165.14 6.1646C165.295 6.26045 165.451 6.35617 165.606 6.45177C165.766 6.44911 165.926 6.44634 166.086 6.44344C165.424 6.31717 166.314 6.24904 166.534 6.15217C167.097 6.1493 167.448 6.31666 167.636 6.33536C167.725 6.34462 168.784 6.1554 168.357 6.40942C168.9 6.40911 169.433 6.40692 169.977 6.40402C170.186 6.43756 170.395 6.47086 170.603 6.50395C170.141 6.609 171.451 6.83895 170.476 6.8392C169.747 6.8389 169.571 6.70593 169.228 6.6865C168.917 6.66854 168.748 6.74057 168.408 6.72321C166.129 6.60401 164.274 6.45524 162.122 6.2385C161.695 6.19524 161.304 6.20148 161.02 6.17048C160.699 6.1352 161.112 6.06889 160.698 6.05677C160.263 6.04385 160.162 6.11864 160.048 6.10974C159.977 6.10405 159.761 6.00778 159.554 5.98789C158.702 5.90736 157.453 5.84887 157.335 5.83497C157.195 5.82351 154.817 5.47735 154.705 5.44552C154.645 5.43099 154.805 5.17033 154.243 5.39806C154.078 5.38223 153.919 5.36669 153.753 5.34999C153.787 5.29825 153.821 5.24656 153.855 5.19475C153.091 5.25401 153.115 5.22555 152.762 5.15889C152.653 5.13767 152.5 5.11151 152.272 5.08248C149.987 4.78807 146.623 4.3026 144.12 4.03571C143.561 3.97568 143.341 4.01775 142.68 3.94876C142.065 3.88338 140.483 3.51521 140.802 3.82706C139.46 3.44627 139.199 3.83648 138.539 3.51269C138.453 3.54183 138.367 3.57101 138.28 3.60023C137.556 3.36881 137.307 3.48698 136.496 3.43199C136.146 3.40865 136.567 3.27497 135.841 3.40069C135.707 3.37451 135.573 3.34842 135.439 3.32244C135.474 3.28402 135.509 3.24561 135.544 3.2072C134.756 3.17195 134.71 3.14717 134.785 3.30874C134.411 3.24838 134.03 3.1881 133.654 3.12906C133.603 3.17581 133.552 3.22258 133.501 3.26936C133.678 3.35299 142.28 4.02743 143.478 4.14912C144.866 4.41942 147.692 4.62395 148.82 4.80382C149.27 4.87456 149.454 5.01467 150.111 5.11824C150.765 5.22143 151.607 5.23532 151.958 5.28224C152.134 5.30557 152.408 5.34408 152.733 5.39181C154.518 5.65671 157.989 6.08258 154.823 5.82947C154.924 5.89857 155.021 5.96692 155.12 6.03555C156.622 6.02301 156.064 6.07575 157.294 6.23173C157.806 6.29683 159.051 6.29636 158.956 6.54192C157.994 6.49472 156.976 6.30397 156.147 6.21172C156.066 6.20339 155.065 6.2023 154.561 6.10546C154.105 6.01752 154.456 5.821 153.425 5.95697C153.13 5.80442 152.883 5.74664 152.68 5.73085C152.393 5.70746 152.186 5.76639 152.07 5.7646C151.723 5.75951 151.704 5.62427 151.365 5.5606C150.994 5.49094 150.729 5.54214 150.678 5.53558C150.17 5.46328 147.513 5.12469 147.399 5.05974C147.508 5.05022 147.618 5.04075 147.727 5.03134C147.044 4.90617 147.17 5.05799 146.987 5.05098C146.852 5.03352 146.717 5.01614 146.582 4.99884C146.639 4.97789 146.696 4.95695 146.753 4.93602C145.938 4.84088 146.549 5.01286 145.393 4.87002C144.659 4.77974 143.912 4.58664 143.84 4.58627C143.819 4.58608 144.042 4.68389 143.741 4.65894C143.244 4.61729 142.387 4.52005 142.301 4.4128C142.056 4.39976 142.067 4.4969 142.034 4.49551C141.892 4.48708 139.462 4.26379 139.025 4.2285C137.818 4.12349 136.481 3.97731 135.167 3.87893C135.033 3.86884 135.124 3.81532 134.989 3.80561C134.775 3.78969 133.651 3.7916 133.486 3.78551C133.075 3.76801 131.981 3.64446 131.81 3.65989C131.785 3.66197 132.137 3.7716 131.716 3.76546C131.251 3.75894 131.509 3.66679 131.484 3.66376C130.532 3.55481 129.941 3.59165 129.283 3.56267C129.072 3.55337 128.691 3.44458 128.395 3.4508C128.361 3.45147 128.423 3.53291 128.39 3.53462C127.941 3.54691 127.525 3.37832 127.334 3.35777C126.862 3.30754 127.114 3.42837 127.089 3.42765C126.779 3.41312 126.347 3.35055 125.867 3.33051C123.722 3.2428 121.974 3.17755 119.688 3.12735C119.396 3.12123 119.056 3.04205 119.013 3.04145C118.878 3.04046 118.916 3.12831 118.527 3.12275C117.687 3.11124 116.921 3.11674 116.104 3.12753C115.935 3.12985 115.862 3.04984 115.735 3.05059C115.318 3.0493 113.88 3.31701 113.832 3.05798C113.01 3.33505 112.426 3.17527 111.729 3.24969C111.1 3.3214 110.374 3.4126 109.537 3.63394C108.316 3.9663 107.019 4.35681 106.059 4.64425C105.734 4.74109 105.563 4.72627 105.382 4.7822C105.056 4.87287 103.244 5.56585 103.147 5.60134C102.955 5.65546 102.953 5.32588 102.096 5.95699C101.545 6.20705 101.564 6.06886 101.445 6.11204C100.524 6.4542 99.7892 7.12982 99.8389 6.8247C98.8388 7.39461 98.2679 7.88916 97.7417 7.92824C97.8053 8.02445 97.3745 8.35611 96.8035 8.68311C97.2635 8.16101 97.1196 8.06842 98.5582 7.29979C98.581 7.28799 98.5779 7.38412 98.6006 7.37232C98.8069 7.26502 99.2132 7.00169 99.5673 6.82994C99.9217 6.65843 99.7509 6.80684 99.8913 6.7364C100.02 6.67248 99.9813 6.60281 100.169 6.51189C100.777 6.21824 101.314 5.96105 101.666 5.81063C101.887 5.71573 102.162 5.67786 102.335 5.6082C103.001 5.33232 104.408 4.75601 105.276 4.48196C105.457 4.42423 105.405 4.52259 105.801 4.40141C105.847 4.38741 105.989 4.25534 106.331 4.1313C106.671 4.00757 106.952 3.96554 107.172 3.89142C107.356 3.82977 107.258 3.78252 107.639 3.66731C107.78 3.62476 108.567 3.40825 109.422 3.19676C110.666 2.89546 111.898 2.83694 112.018 2.82483C112.332 2.81229 112.469 2.90402 112.649 2.87763C112.68 2.8726 112.726 2.77054 112.837 2.75557C114.662 2.48458 118.632 2.60933 120.659 2.67161C124.922 2.77978 128.819 2.96114 133.085 3.27593C133.162 3.26495 133.239 3.25401 133.316 3.2431C132.89 3.20799 132.452 3.17283 132.023 3.1394C132.023 3.0931 132.024 3.0468 132.025 3.0005C131.444 2.94903 131.514 3.06431 131.525 3.13119C131.314 3.08741 131.096 3.04326 130.882 2.99975C130.684 3.14618 129.251 2.93852 128.512 2.89309C128.032 2.86255 127.446 2.88907 127.195 2.86984C126.661 2.82925 126.678 2.73113 126.636 2.72709C126.563 2.72058 125.802 2.76671 125.266 2.73715C124.452 2.693 124.392 2.53619 123.274 2.6202C121.869 2.48511 120.307 2.47928 118.776 2.47619C119.071 2.33763 117.695 2.45773 117.076 2.46103C114.76 2.49725 112.26 2.40952 109.376 3.02149C107.762 3.42437 106.174 3.87166 104.719 4.34597C104.244 4.50074 103.86 4.55077 103.597 4.64975C103.455 4.70347 103.428 4.81792 103.226 4.8799C103.19 4.89088 103.133 4.81299 102.762 4.94158C101.828 5.24357 99.6504 6.39551 99.019 6.54844C97.441 7.37964 95.9017 8.35139 94.4885 9.55377C93.5122 10.3841 92.2752 11.1083 90.9991 11.6902C90.9159 11.6862 90.8323 11.6819 90.7509 11.6761C90.3264 12.098 88.1759 12.7298 87.1164 12.9357C85.2658 13.3843 82.83 13.5676 81.1833 13.3814C80.8264 13.3463 80.5388 13.2537 80.2068 13.2024C80.0635 13.1803 79.8709 13.2184 79.7216 13.1906C79.1308 13.082 78.4755 12.9177 77.8106 12.7002C76.6137 12.3142 75.3974 11.6927 74.3745 11.1253C71.7902 9.74667 68.9855 7.4914 65.0647 7.40799C63.9611 7.38761 62.8192 7.36307 61.6651 7.33699C48.7035 7.01694 35.7695 6.64957 23.0071 5.57011C21.3773 5.42575 19.7288 5.24537 18.0913 5.04739C17.9009 5.0243 17.9198 4.94506 17.771 4.92672C16.8908 4.81941 14.9185 4.63553 13.9281 4.49696C13.1378 4.38861 11.8962 4.08994 11.6099 4.17471C14.3943 4.75952 17.3652 5.13265 20.2902 5.49848C20.4948 5.52401 20.516 5.60348 20.541 5.60755C21.0137 5.68359 20.7229 5.5477 21.411 5.6123C21.5541 5.62596 22.4027 5.8023 22.9812 5.86632C23.3379 5.90632 23.5934 5.90611 23.5042 5.80454C24.0134 5.9521 27.6107 6.27902 28.3093 6.2903C28.5224 6.29531 28.377 6.21256 28.4195 6.21185C28.6035 6.20865 28.6812 6.31409 28.8423 6.32775C29.2718 6.36389 30.3907 6.35656 30.5968 6.37007C31.0794 6.40262 32.5242 6.57353 33.1666 6.59168C33.7531 6.60862 33.6489 6.49804 34.1559 6.51759C34.5557 6.53298 34.1159 6.59625 35.0062 6.67264C35.4464 6.71068 36.997 6.73075 37.3725 6.74962C37.7481 6.76902 38.1632 6.85266 38.6818 6.87362C39.4283 6.90439 41.0537 6.94658 41.8166 6.9606C41.862 6.96153 41.9762 6.88547 42.0877 6.89217C42.3188 6.90593 42.2449 7.00291 42.4188 7.02084C42.596 7.04025 45.6235 7.15639 46.1418 7.17666C46.4974 7.19139 46.7437 7.1413 46.9387 7.14943C47.0914 7.15594 47.105 7.23999 47.2631 7.24703C47.3121 7.24893 47.7313 7.19255 48.1429 7.20971C48.5283 7.22625 50.0136 7.34916 50.1853 7.3556C50.298 7.35986 50.177 7.29628 50.5093 7.30936C50.8116 7.32141 51.0058 7.40516 51.1763 7.41215C51.5698 7.42819 52.0292 7.37799 52.4472 7.39148C53.6642 7.43057 53.5998 7.52336 53.6719 7.52889C53.8728 7.5439 53.9554 7.45906 54.021 7.45933C54.3026 7.46092 54.9968 7.46615 55.2409 7.47007C55.5466 7.47506 55.6868 7.56233 56.0164 7.57233C56.2625 7.57952 56.7595 7.51304 57.3264 7.52501C58.5958 7.55149 60.1038 7.57544 61.3495 7.60795C61.7247 7.61767 61.775 7.69459 61.8864 7.69915C62.494 7.72353 62.8113 7.64555 62.9887 7.65051C63.5547 7.66622 64.3012 7.71143 65.0584 7.75731C66.1239 7.8081 67.1621 8.0762 67.8199 8.28538C68.3435 8.39763 70.4106 9.23771 71.3965 9.85157C71.5125 9.91858 71.3742 9.9084 71.5082 9.9739C71.8285 10.1314 71.8584 10.0097 72.0121 10.1029C72.0862 10.1484 72.2203 10.3055 72.4314 10.4373C73.5187 11.1202 74.2744 11.4854 74.7645 11.7449C75.7308 12.2613 76.7068 12.7003 77.7122 13.018C81.6606 14.2908 86.0236 13.9949 89.7008 12.6901C90.218 12.5079 90.8219 12.198 91.5973 11.9098C91.6365 11.9329 91.6758 11.9559 91.7151 11.9788C91.7255 11.9329 91.7356 11.887 91.7455 11.8412C92.5721 11.41 92.8549 11.2019 93.6682 10.7386C93.7381 10.6981 94.0367 10.7045 94.0391 10.4412C94.7892 10.068 94.4479 10.1704 94.7601 9.87757C94.7974 9.84223 94.842 9.80199 94.8959 9.75595C95.5117 9.23098 96.1733 8.81255 96.8228 8.40088C97.2108 8.22831 95.8502 9.36292 95.7689 9.44601C95.6212 9.55611 95.4021 9.59163 95.258 9.6991C95.1205 9.80162 94.9921 9.91321 94.8775 10.0174C94.6814 10.199 94.5086 10.3516 94.4161 10.3408C94.0006 10.7706 94.5632 10.2957 94.5567 10.4102C94.219 10.6201 93.8716 10.8125 93.5127 10.9944C93.5195 11.3969 91.3326 12.0844 91.5643 12.2044C91.3836 12.2365 91.1971 12.2685 91.016 12.2956C90.4056 12.8704 89.8836 12.8558 88.8618 13.0833C88.9451 13.0971 89.0273 13.1108 89.1117 13.1233C89.0988 13.1488 88.2197 13.4667 88.4955 13.2209C87.6301 13.6746 87.5887 13.322 86.8061 13.7425C86.3149 13.8656 86.5857 13.6786 85.6953 13.8154C85.1673 13.8918 84.5101 14.0339 83.9123 14.0668C83.7743 14.0743 83.7098 13.9917 83.5885 13.9956C83.467 13.9993 83.4094 14.0841 83.2605 14.0885C82.9507 14.0982 82.5579 14.0331 82.3649 14.0315C82.195 14.0302 81.9453 14.0952 81.5311 14.0749C80.0862 13.9774 80.5354 13.8968 80.3149 13.8378C80.0819 13.7642 79.882 13.8757 79.4068 13.7663C79.3592 13.755 79.4998 13.6955 79.3438 13.6674C79.2189 13.6437 79.1328 13.725 78.7163 13.6445C78.647 13.6306 78.1681 13.5224 77.6082 13.3536C76.8257 13.1264 75.9052 12.7333 75.689 12.6322C75.1227 12.389 73.9276 11.6586 73.355 11.3215C73.1334 11.1939 72.8583 11.1203 72.6218 10.9809C71.8382 10.5216 70.5599 9.74278 69.4293 9.22547C68.4548 8.71681 66.4703 8.03105 65.7954 8.17008C65.5119 8.1462 65.2688 8.13397 65.0518 8.12604C64.1385 8.09032 63.8881 7.99638 63.7885 7.99305C63.4848 7.98204 63.3639 8.06438 62.9729 8.05992C58.0928 8.00575 51.6823 7.75161 47.0575 7.57623C39.0314 7.2704 30.9618 6.90927 22.9502 6.21994C20.29 5.98486 17.6266 5.66674 14.9671 5.31229C14.9336 5.34583 14.9001 5.37937 14.8665 5.41289C16.1229 5.602 17.5913 5.84928 18.8339 6.00564C20.0337 6.15787 21.6735 6.25053 22.9333 6.41403C23.4047 6.47584 23.8308 6.55123 24.1632 6.64932C23.7354 6.63334 23.0997 6.5103 22.921 6.55448C22.8892 6.56239 22.8715 6.5756 22.8719 6.5957C22.887 6.59718 22.902 6.59867 22.917 6.60014C23.7779 6.68481 24.6534 6.76615 25.5269 6.84359C25.505 6.78067 25.4831 6.71774 25.4612 6.6548C26.3871 6.70948 27.3355 6.79277 28.2656 6.84914C28.428 6.85905 28.3169 6.79575 28.4583 6.80532C28.6167 6.81612 28.5054 6.86492 28.535 6.86743C28.934 6.89561 29.0554 6.84652 29.1043 6.8507C29.2285 6.86136 29.1277 6.90906 29.4859 6.94837C30.1532 7.02152 30.6378 6.90779 30.4663 7.13764C30.6808 7.15151 30.8959 7.16525 31.1115 7.17888C31.1715 7.11711 31.2314 7.05533 31.2914 6.99354C32.5991 7.33996 33.2397 6.91265 33.9488 7.32197C34.1934 7.27978 34.4383 7.23745 34.6834 7.19497C34.8163 7.26797 34.948 7.34084 35.0805 7.41372C35.1101 7.35912 35.1397 7.30452 35.1693 7.24992C36.4683 7.36329 37.8576 7.36766 39.1021 7.43502C39.9687 7.48177 40.1772 7.51377 40.944 7.54529C42.6556 7.61404 40.9528 7.64821 42.3664 7.83227C42.2957 7.76022 42.225 7.68815 42.1543 7.61607C42.39 7.60136 42.626 7.58657 42.8634 7.57172C43.0251 7.63502 43.1866 7.69825 43.3479 7.76142C44.0845 7.50172 44.548 7.75617 44.6468 7.76031C44.7277 7.76309 45.0065 7.59954 45.8617 7.78262C45.5135 7.52877 46.5199 7.80756 46.5995 7.81195C46.674 7.81596 47.6667 7.80094 48.065 7.81803C48.3753 7.83148 49.0521 7.90821 49.5186 7.92246C49.9306 7.93504 49.8909 7.85212 49.921 7.85237C50.4334 7.8638 50.1108 7.91564 50.4807 7.93177C50.8503 7.94783 51.1358 7.88823 51.2143 7.89713C51.2539 7.90179 51.1188 7.97301 51.2999 7.98653C51.7997 8.02369 52.6738 7.98639 53.2491 8.00681C53.4495 8.01388 53.6983 8.08616 53.9178 8.09505C54.2534 8.10842 54.4245 8.02825 54.6213 8.03686C54.6938 8.04021 55.1164 8.18528 55.6716 8.18152C55.7767 8.18057 56.0935 7.91067 56.4814 8.31763C56.5138 8.26288 56.5462 8.20813 56.5785 8.15338C58.4154 8.068 58.9158 8.53249 59.7429 8.15252C61.0742 8.23088 60.1557 8.36412 60.3005 8.39174C60.3976 8.40933 60.8303 8.37696 60.8755 8.38048C60.9579 8.38727 60.9425 8.43709 61.0323 8.43897C62.7316 8.46976 61.9869 8.35719 62.5247 8.30943C63.8128 8.1946 64.7719 8.53167 62.5746 8.38966C62.574 8.41765 62.5734 8.44563 62.5727 8.47362C63.1177 8.45938 64.5117 8.49996 64.0439 8.63258C63.676 8.73896 60.3793 8.59045 62.2427 8.79004C62.6663 8.83504 62.8953 8.7352 63.6125 8.94713C64.1178 8.96809 64.158 8.71384 64.8348 8.82891C64.7307 8.73796 64.6231 8.6469 64.5121 8.55575C64.6931 8.53678 64.8728 8.52783 65.0447 8.52531C65.8838 8.51142 66.748 8.76531 67.3255 8.88449C67.5666 8.92044 68.5656 8.82016 68.2217 9.15068C68.6445 9.2388 70.343 10.1491 70.6526 10.3004C70.7276 10.3336 70.9481 10.1852 71.9529 10.8631C72.0107 10.9298 72.0691 10.9969 72.1264 11.0633C71.1356 10.5781 72.768 11.632 72.2047 11.5503C72.1002 11.3769 71.3768 10.8851 71.2776 10.7736C71.1087 10.5811 71.7899 10.8454 70.9751 10.4155C70.2966 10.4425 71.8121 11.1159 71.4208 11.2864C72.5293 11.7513 72.5538 11.9419 72.7837 12.082C73.7673 12.6768 74.4166 12.9926 75.3806 13.4778C75.6405 13.5361 73.9375 12.5908 73.7201 12.4834C74.6159 12.6886 73.2854 11.9558 72.6537 11.7485C72.6442 11.6564 72.6347 11.5641 72.6255 11.472C73.3333 11.9331 74.0341 12.3562 74.7935 12.6688C74.8285 12.7177 74.8639 12.7666 74.8996 12.8155C74.7152 12.7714 74.5322 12.7257 74.3475 12.6768C74.93 13.0508 74.6536 12.677 75.3978 13.2389C75.4585 13.174 75.519 13.1089 75.5792 13.0435C76.1913 13.3444 76.8175 13.611 77.4598 13.8329C77.6346 13.8932 77.8095 13.9507 77.9843 14.0053C78.4599 13.9848 80.0667 14.3593 79.7358 14.5139C80.4019 14.6389 79.5977 14.3922 80.2282 14.4365C80.5046 14.4561 81.0335 14.5096 81.1622 14.5794C81.0848 14.7853 80.2747 14.7165 80.0087 14.8147C80.1475 14.9776 83.9577 14.9942 83.6254 15.1752C83.9326 15.1927 83.7901 15.0769 84.3349 15.0119C85.858 14.853 88.2731 14.5993 89.3552 13.902C87.9258 14.1557 87.5544 14.4144 86.4607 14.6233C85.7737 14.8739 81.4473 14.9805 82.4199 14.7269C82.2612 14.7503 82.1047 14.7718 81.9453 14.7912C81.7896 14.7172 81.6344 14.6411 81.4834 14.5634C81.9273 14.5889 82.3717 14.5988 82.8162 14.5934C82.9214 14.6598 83.0272 14.7254 83.1356 14.79C83.1849 14.743 83.2337 14.6957 83.2822 14.6483C83.4702 14.6362 83.6551 14.6216 83.8435 14.6042C83.7932 14.6626 83.7423 14.7207 83.691 14.7787C83.9848 14.778 84.2725 14.7712 84.5666 14.7577C84.4823 14.6891 84.3983 14.6199 84.3158 14.5503C85.6696 14.4186 85.2108 14.4992 85.9849 14.5392C86.546 14.4639 85.5827 14.4818 86.7526 14.241C88.0994 13.9119 87.2671 14.3641 89.0008 13.834C89.015 13.7907 89.029 13.7474 89.0428 13.704C89.4313 13.6248 89.8198 13.5344 90.2066 13.4329C90.1415 13.4071 90.0764 13.3811 90.0115 13.3549C90.7915 13.1036 91.7748 12.5641 92.0966 12.6059C91.3122 12.8788 91.4372 13.1584 91.6645 13.1251C91.9123 13.0853 93.9584 12.1972 95.5576 10.8281C96.8545 9.71286 98.2821 8.85386 98.7867 8.56483C100.253 7.73047 101.449 7.30127 102.811 6.57854C101.775 6.79949 98.5245 8.52985 97.9123 8.8752C97.8496 8.90432 97.7081 8.64441 97.5076 9.16258C96.833 9.56067 96.1287 10.077 95.4348 10.6817C94.8918 11.1561 94.2553 11.6126 93.5778 12.0071C93.5805 11.9079 93.5821 11.8089 93.5826 11.7104C94.595 11.3179 95.0939 10.3942 95.1926 10.7349C95.2507 10.6881 95.3073 10.6417 95.3624 10.5954C95.4711 10.5043 95.5812 10.4141 95.6926 10.3249C95.6574 10.281 95.6222 10.237 95.5871 10.193C95.8497 9.98289 96.1182 9.77951 96.391 9.58299C96.4239 9.62868 96.4568 9.67438 96.4897 9.72007C96.7134 9.55895 96.9401 9.40239 97.1702 9.2496C97.1632 9.18683 97.156 9.12426 97.1492 9.06151C97.883 8.66792 100.223 7.08331 99.2887 7.95845C99.6289 7.77702 99.9738 7.60182 100.319 7.43378C100.3 7.3973 100.281 7.36082 100.262 7.32435C100.409 7.2465 100.557 7.1701 100.705 7.09461C100.671 7.15158 100.637 7.20856 100.604 7.26557C101.263 6.87876 102.001 6.77643 102.411 6.46893C102.097 6.56762 101.783 6.67018 101.471 6.7771C102.067 6.56735 103.103 6.0362 103.202 6.00047C103.497 5.88629 103.683 5.90498 104.005 5.79106C104.297 5.68839 104.235 5.64345 104.29 5.62592C105.885 5.13583 105.392 5.67905 106.002 5.04538C106.098 5.0733 106.194 5.10149 106.289 5.12996C106.38 5.05226 106.471 4.97475 106.562 4.89743C107.032 4.75576 107.503 4.61957 107.976 4.48858C107.799 4.46646 107.623 4.44491 107.445 4.42423C108.144 4.1863 108.514 4.23216 108.583 4.21574C108.779 4.16981 108.845 4.06072 108.905 4.04413C109.173 3.97184 109.402 3.91242 109.597 3.86321C111.638 3.46278 110.249 3.82202 111.663 3.92724C112.169 3.74281 111.629 3.66849 111.538 3.54674C112.249 3.53157 112.468 3.47736 113.238 3.43349C113.427 3.42362 113.64 3.48331 113.764 3.47794C113.87 3.47313 114.214 3.38098 114.459 3.37142C114.886 3.35413 115.452 3.3828 116.041 3.37221C116.523 3.36065 118.009 3.29943 119.04 3.31476C119.48 3.3207 119.378 3.38296 119.493 3.38481C119.541 3.38553 119.89 3.31558 120.167 3.32123C122.468 3.36818 124.833 3.52041 127.134 3.6523C128.765 3.74599 130.413 3.79717 132.04 3.92818C132.386 3.95623 132.199 3.99766 132.35 4.01135C132.401 4.01596 132.473 3.92362 133.006 4.00531C133.197 4.03477 132.97 4.08477 133.159 4.10334C133.251 4.11248 133.296 4.03024 133.838 4.05552C134.83 4.10229 135.34 4.26229 135.43 4.26663C135.596 4.27474 135.553 4.20018 135.773 4.21722C136.845 4.30062 137.742 4.37356 138.695 4.46167C139.145 4.49912 142.215 4.80835 142.383 4.84334C142.757 4.91325 142.39 5.02042 142.874 5.06953C143.014 5.04769 143.153 5.02595 143.293 5.0043C143.081 4.95172 142.869 4.89937 142.657 4.8472C143.244 4.96022 143.923 4.97089 144.362 5.02486C144.443 5.03475 145.181 5.1892 145.562 5.22824C145.397 5.23615 145.232 5.24418 145.067 5.25234C145.121 5.28261 145.176 5.31288 145.23 5.34318C145.993 5.39874 146.799 5.49948 147.576 5.60407C147.856 5.64176 147.754 5.68648 148.038 5.72526C149.69 5.95454 149.309 5.6627 150.835 6.32561C150.307 6.20856 148.338 6.00201 148.055 5.95193C147.857 5.91542 147.136 5.44218 147.369 5.86314C145.781 5.6615 147.187 5.62107 145.696 5.48459C145.72 5.53521 145.744 5.58584 145.768 5.63646C145.246 5.60297 144.861 5.58123 144.555 5.46104C144.422 5.67585 142.677 5.33837 141.708 5.25017C140.308 5.11995 138.722 5.0152 137.335 4.89434C136.857 4.85246 136.595 4.73819 136.535 4.73292C136.447 4.72549 136.196 4.78167 136.02 4.76643C135.365 4.70767 133.387 4.4065 132.879 4.58741C136.764 4.89775 140.646 5.28294 144.519 5.73894C144.045 5.57 147.962 6.03894 148.16 6.07689C148.343 6.10564 148.179 6.16038 148.233 6.17206C148.635 6.25729 148.996 6.19489 149.124 6.21211C149.222 6.22523 149.415 6.30278 149.765 6.34935C149.829 6.35794 149.855 6.30651 149.924 6.31578C150.381 6.37835 150.826 6.4411 151.287 6.50625C151.315 6.51073 151.419 6.60578 151.535 6.62245C151.651 6.63901 151.776 6.57694 151.806 6.5809C152.004 6.60973 152.276 6.66472 152.538 6.71747C152.756 6.76079 152.97 6.80193 153.129 6.82416C153.25 6.84078 153.174 6.77166 153.31 6.79079C153.728 6.84892 153.574 6.94337 154.089 6.98125C154.262 6.99367 154.262 6.90606 154.592 6.95939C154.828 6.99718 154.781 7.14748 154.817 7.15775C154.865 7.17109 155.687 7.14713 155.941 7.27814C155.334 7.47758 156.568 7.36452 156.523 7.24472C156.84 7.30898 157.159 7.37242 157.474 7.43453C157.586 7.41763 157.698 7.40064 157.811 7.38358C159.09 7.6458 159.887 7.64337 161.157 7.79574C161.217 7.80366 162.287 7.95869 162.233 7.99409C161.585 8.00979 160.943 7.95641 160.543 7.79152C159.841 7.97244 159.854 7.77962 158.755 7.70442C158.389 7.67905 158.357 7.74216 158.315 7.73881C156.89 7.63149 154.61 7.39152 153.683 7.06821C153.41 7.08524 154.363 7.23133 153.986 7.22092C153.917 7.21938 153.239 7.14442 152.491 7.03973C151.121 6.84313 149.441 6.58957 150.471 6.58589C150.308 6.56947 150.144 6.55318 149.981 6.537C149.79 6.72322 148.986 6.56626 149.106 6.37076C149.024 6.40311 148.942 6.4355 148.86 6.46792C148.704 6.48386 148.522 6.47945 148.269 6.45799C147.303 6.36039 141.576 5.61654 141.266 5.62636C141.254 5.67514 141.242 5.72391 141.23 5.77269C143.758 6.10124 146.231 6.26945 148.967 6.77777C148.893 6.72081 148.82 6.66387 148.746 6.60696C149.837 6.81768 150.927 7.03479 152.015 7.25888C150.84 7.17239 148.984 6.98969 147.77 6.76387C147.554 6.72348 147.722 6.67946 147.673 6.66518C147.545 6.62802 147.391 6.72198 146.922 6.67366C146.452 6.62469 145.284 6.40123 145.176 6.391C144.967 6.37047 144.39 6.43202 144.036 6.38926C143.57 6.33292 143.892 6.28967 143.798 6.27714C143.412 6.22457 143.061 6.22457 142.759 6.18466C142.31 6.125 141.389 5.88296 141.053 6.05526C141.373 6.09895 141.693 6.14317 142.014 6.18789C140.264 6.07087 138.924 5.66861 137.185 5.70848C136.77 5.92059 138.196 6.02164 136.983 6.01418C137.202 6.03106 137.421 6.04825 137.64 6.06563C137.695 6.01834 137.751 5.97107 137.807 5.92382C138.178 5.99719 138.55 6.07131 138.922 6.14616C138.82 6.08895 138.717 6.0318 138.615 5.9747C139.95 6.07102 141.299 6.16783 141.735 6.46831C141.769 6.41094 141.803 6.35358 141.837 6.29623C143.064 6.50305 144.946 6.46677 144.56 6.76157C144.621 6.7507 144.681 6.73985 144.742 6.72902C145.479 6.88668 145.177 6.71005 145.459 6.72817C145.539 6.73256 146.979 6.98409 146.325 7.00379C147.727 7.25698 147.33 6.88992 147.722 6.92595C148.607 7.19655 150.261 7.18605 149.545 7.33791C149.678 7.3654 149.811 7.39297 149.944 7.42062C150.413 7.2887 150.815 7.56708 151.285 7.70833C151.446 7.7358 151.608 7.7634 151.769 7.79111C151.886 7.742 152.004 7.69296 152.121 7.64398C152.218 7.67888 152.307 7.70757 152.389 7.73091C153.561 8.05681 153.288 7.31124 153.849 8.06028C153.734 8.08845 153.619 8.11651 153.505 8.14447C153.241 8.12975 152.974 8.11375 152.712 8.09753C153.769 8.26497 154.806 8.41426 155.862 8.55532C157.176 8.90714 157.957 8.77033 159.428 9.07129C159.568 9.0655 159.708 9.05959 159.849 9.05357C159.693 9.2016 159.155 9.12788 160.153 9.29353C160.228 9.41559 159.548 9.36772 159.248 9.2503C159.176 9.22188 159.818 9.19525 159.105 9.12367C158.619 9.07366 159.484 9.29893 158.04 9.1027C158.092 9.13614 158.142 9.16936 158.193 9.20265C158.037 9.1861 157.876 9.16875 157.719 9.15157C157.585 9.07252 157.451 8.99337 157.318 8.9141C156.952 8.96882 156.73 9.07801 155.912 8.95673C156.137 8.94157 155.857 8.77915 155.444 8.73267C155.439 8.77922 155.433 8.82577 155.428 8.87232C154.434 8.7835 154.8 8.68953 153.96 8.69117C153.883 8.64361 153.806 8.59601 153.729 8.54836C153.455 8.60663 152.72 8.58279 152.279 8.51235C151.988 8.46543 151.812 8.40092 151.941 8.32772C151.459 8.48316 150.518 8.248 150.191 8.02248C150.158 8.06482 150.124 8.10717 150.091 8.14952C149.901 8.13285 149.711 8.11634 149.521 8.1C149.42 8.05777 149.318 8.01558 149.217 7.97344C149.079 7.98321 148.942 7.99327 148.805 8.00338C148.731 7.94634 148.656 7.88932 148.582 7.83232C148.36 7.85937 148.138 7.88664 147.915 7.91414C147.789 7.86004 147.662 7.806 147.535 7.75205C147.508 7.84624 146.205 7.70265 145.847 7.59508C145.735 7.60981 145.623 7.62467 145.511 7.63955C145.464 7.58705 145.416 7.53456 145.369 7.48207C145.284 7.50911 145.198 7.53617 145.113 7.56328C144.931 7.504 144.75 7.44488 144.568 7.38592C143.781 7.52191 143.78 7.32171 143.606 7.30287C143.284 7.26774 142.173 7.28609 141.99 7.25909C141.808 7.23159 141.729 7.1408 141.582 7.11708C139.159 6.72875 140.137 7.05559 139.645 7.03849C139.38 7.03024 139.202 6.93569 138.967 6.92054C138.565 6.89251 136.543 6.80037 136.428 6.78146C136.261 6.75182 136.69 6.4306 136.134 6.47261C136.101 6.66268 134.94 6.3638 135.466 6.6806C134.983 6.61391 134.508 6.54904 134.024 6.48457C134.06 6.71698 133.473 6.51974 132.827 6.48078C131.901 6.42209 129.822 6.42321 129.915 6.19604C129.693 6.23457 129.469 6.27324 129.243 6.31209C127.747 6.13784 126.252 6.12781 124.762 6.05919C120.351 5.87794 115.426 5.63305 111.309 6.08908C111.13 6.11272 111.132 6.03532 110.995 6.05551C110.795 6.08567 110.487 6.14431 110.217 6.22055C109.294 6.473 108.075 6.84721 107.32 7.07107C106.98 7.17098 106.794 7.15265 106.686 7.18377C106.32 7.28957 106.437 7.35558 106.269 7.40772C106.005 7.48533 104.599 7.88117 104.131 8.05726C103.898 8.1415 103.655 8.32085 103.379 8.40736C103.355 8.41491 103.367 8.32294 103.347 8.32956C102.856 8.52011 103.176 8.46453 103.01 8.52925C101.83 8.99401 100.61 9.571 99.4378 10.233C99.1451 10.3967 98.6823 10.6151 98.4395 10.7678C98.3476 10.8258 98.5431 10.7692 98.228 10.9721C98.1204 11.0422 98.0394 11.001 97.9174 11.0789C97.3913 11.421 97.384 11.7483 96.844 11.9166C96.7746 11.9743 96.7017 12.0363 96.6264 12.102C95.6579 12.9631 94.1019 13.939 93.2 14.3722C92.9707 14.4853 92.8312 14.4995 92.6117 14.6018C92.4556 14.6744 92.2012 14.8675 91.9523 14.9727C91.6995 15.0798 91.2766 15.1771 90.789 15.3553C90.2728 15.5465 89.6339 15.7855 89.5142 15.8194C89.3707 15.8619 89.2771 15.7978 89.1357 15.8387C88.7053 15.9701 87.5475 16.3318 86.9709 16.4364C86.3527 16.5567 85.9721 16.5609 85.7606 16.5891C85.5646 16.6151 85.3412 16.7136 85.2498 16.7234C85.1085 16.7388 85.068 16.6562 84.8895 16.6726C84.5969 16.6989 84.3 16.7754 83.8574 16.7949C81.4817 16.8986 79.0847 16.6 76.8217 15.893C71.9881 14.4265 68.6562 10.7249 65.0054 10.7287C64.4407 10.7137 63.8148 10.6962 63.2482 10.6791C62.4343 10.6547 61.9992 10.7057 60.8095 10.6495C60.3372 10.6267 60.5396 10.5426 60.1624 10.55C59.9935 10.5534 60.0293 10.6244 59.8254 10.6226C58.903 10.614 57.8106 10.519 57.4186 10.5091C57.2605 10.5051 57.0776 10.5795 56.7461 10.5712C54.3144 10.511 51.4302 10.3956 48.8083 10.3127C47.4218 10.2694 45.3178 10.2275 43.7235 10.1644C39.3227 9.99277 34.5872 9.73178 30.5707 9.48115C27.9542 9.31832 25.3221 9.1445 22.7133 8.92666C19.2532 8.63288 15.8381 8.20895 12.4301 7.69168C15.2187 8.27191 19.0647 8.73979 22.2373 9.04826C22.3933 9.06351 22.5472 9.07823 22.6988 9.09242C31.6732 9.91732 41.2029 10.241 50.3731 10.5741C53.6149 10.69 57.7112 10.8087 61.2637 10.9368C61.4318 10.9428 61.75 10.8891 62.1071 10.9037C62.1879 10.9071 63.099 11.0389 63.4083 11.0463C63.1227 10.842 64.3126 11.0435 64.7061 11.0456C64.7912 11.046 64.8908 11.0437 64.9998 11.0399C65.4112 11.0192 66.0666 11.0209 66.7666 11.2683C67.5391 11.5568 67.2945 11.5765 67.3366 11.5907C67.6017 11.7213 67.7449 11.6482 67.9663 11.729C68.801 11.8781 73.6318 15.1045 75.4393 15.6725C75.864 15.8399 75.8506 15.9137 75.9476 15.9501C76.1484 16.0231 76.428 16.071 76.743 16.147C76.8335 16.1687 76.9264 16.1927 77.0205 16.2205C77.7623 16.4443 78.6293 16.7093 79.0505 16.7856C80.0609 16.9944 82.0089 17.1003 83.3323 17.0584C83.7044 17.0509 83.6823 17.131 83.8523 17.1249C84.6002 17.115 86.5082 16.8063 87.3988 16.6082C88.856 16.3202 90.3396 15.9364 91.7326 15.3461C91.8344 15.3442 91.939 15.3405 92.0417 15.337C92.1682 15.2429 92.2889 15.1498 92.4141 15.0531C93.9666 14.3836 95.4529 13.5293 96.8387 12.355C97.3861 11.8818 97.977 11.441 98.5944 11.0415C98.7974 10.899 99.8968 10.326 100.084 10.2327C100.235 10.1496 100.342 9.98901 100.577 9.88109C100.907 9.73137 100.681 10.0375 101.186 9.72913C101.322 9.64726 101.151 9.649 101.429 9.48848C101.511 9.42287 103.394 8.56123 103.508 8.53614C103.685 8.47378 103.897 8.55921 103.943 8.54476C104.182 8.4702 104.129 8.36195 104.282 8.29149C104.734 8.08232 105.375 7.94055 105.451 7.91245C106.363 7.56057 108.098 6.91985 109.119 6.69989C109.26 6.66882 109.268 6.76 109.293 6.75603C109.455 6.73047 109.525 6.60518 109.675 6.56219C109.852 6.51157 110.052 6.45937 110.266 6.40715C110.829 6.26919 111.762 6.19835 112.366 6.15782C112.462 6.1507 112.657 6.08432 112.818 6.07659C113.781 6.03489 113.469 6.13988 113.525 6.13824C113.651 6.13919 113.867 6.03925 114.224 6.01775C115.106 5.95859 116.842 5.94324 117.817 5.95616C118.546 5.96418 118.545 6.0657 118.588 6.06766C118.689 6.07226 118.967 5.995 119.454 5.99382C120.386 5.99259 120.27 6.07029 120.656 6.07577C120.688 6.07667 120.634 5.99825 121.062 6.00191C121.867 6.00624 123.727 6.15225 124.593 6.19147C124.931 6.2061 125.022 6.13662 125.362 6.15235C125.905 6.17637 127.145 6.32683 127.24 6.33288C127.267 6.3345 127.333 6.25327 127.495 6.26296C127.672 6.27364 127.845 6.32805 127.978 6.33605C128.722 6.38011 130.037 6.32218 129.654 6.59988C129.898 6.5416 130.143 6.48373 130.39 6.42626C131.964 6.55382 133.496 6.64642 135.056 6.76788C135.407 6.79526 135.697 6.87889 135.993 6.90294C136.286 6.92594 137.605 6.95453 137.821 6.97436C138.209 7.00669 140.422 7.22167 140.697 7.25964C141.232 7.3294 141.738 7.5109 141.96 7.51065C142.137 7.51039 141.983 7.4222 142.319 7.43945C142.901 7.46899 143.873 7.67255 144.05 7.69211C144.125 7.70049 143.99 7.62871 144.697 7.70859C145.077 7.75173 145.274 7.83678 145.412 7.85324C145.455 7.85834 145.401 7.75201 146.153 7.85829C146.672 7.93216 146.883 8.03579 146.938 8.04292C147.02 8.05383 147.226 7.99837 147.555 8.04363C148.323 8.14902 149.713 8.42956 150.437 8.53879C150.577 8.55991 150.542 8.45581 151.103 8.54458C151.504 8.60832 151.423 8.67541 151.572 8.70008C151.733 8.72658 151.954 8.71529 152.242 8.73046C152.386 8.73826 152.54 8.751 152.713 8.77605C153.39 8.90019 158.403 9.56781 158.659 9.60161C158.832 9.63598 159.035 9.65679 159.118 9.70724C159.04 9.74039 158.961 9.7735 158.883 9.80658C158.127 9.5893 158.422 9.78139 158.217 9.77147C157.919 9.75735 156.809 9.61931 156.532 9.62397C156.434 9.62614 156.645 9.73699 156.122 9.72313C155.565 9.70792 155.332 9.52478 155.085 9.70733C154.332 9.38176 153.531 9.52788 154.445 9.71035C154.954 9.8308 159.942 10.4389 160.96 10.5238C161.789 10.6079 163.339 10.6711 164.354 10.7618C164.95 10.8169 166.42 10.9293 166.35 11.0361C166.879 11.0857 166.326 10.937 166.438 10.929C166.672 10.9134 168.32 11.0961 168.635 11.1109C170.18 11.1905 172.133 11.1688 173.627 11.3786C173.555 11.4053 173.484 11.432 173.413 11.4586C173.068 11.4984 171.511 11.3416 171.329 11.4751C173.614 11.5954 175.896 11.6944 178.195 11.7715C178.149 11.6504 180.99 11.7354 181.133 11.7906C181.082 11.8486 181.03 11.9067 180.978 11.9647C179.375 11.6987 179.514 11.9981 178.436 11.8063C178.001 11.7897 178.128 11.8918 177.911 11.903C175.752 12.0105 177.885 11.7028 176.232 11.728C176.723 11.8894 175.364 11.8883 174.767 11.8798C174.628 11.8789 172.819 11.7597 172.609 11.7505C171.402 11.7052 169.329 11.6684 168.137 11.5153C167.196 11.4473 166.668 11.5139 165.81 11.4783C165.158 11.4505 165.35 11.3925 165.044 11.3698C164.402 11.3215 164.174 11.5212 163.785 11.189C163.347 11.1932 162.909 11.1965 162.469 11.1985C162.473 11.1517 162.477 11.105 162.481 11.0583C162.207 11.0361 161.934 11.0134 161.661 10.9903C161.576 11.03 161.491 11.0697 161.407 11.1094C160.542 10.9705 160.916 10.8891 160.765 10.7428C160.579 10.7172 160.393 10.6914 160.205 10.6652C160.05 10.7534 159.895 10.8415 159.74 10.9294C158.905 10.8435 158.066 10.7525 157.223 10.6549C157.174 10.6027 157.125 10.5505 157.076 10.4983C157.069 10.5446 157.062 10.5908 157.055 10.6371C155.63 10.4945 154.203 10.3349 152.769 10.1478C152.378 10.1735 154.671 10.5321 154.837 10.5513C155.8 10.6986 158.364 10.8905 158.346 11.0529C158.959 10.9911 160.748 11.1869 161.294 11.3815C160.448 11.2998 159.601 11.2136 158.752 11.1218C158.774 11.18 158.796 11.2383 158.818 11.2965C157.782 10.9683 157.624 10.9649 156.514 11.0589C156.521 10.9843 156.529 10.9098 156.536 10.8353C155.744 11.0122 154.45 10.4111 154.375 10.7246C153.971 10.6483 153.564 10.5697 153.167 10.4904C152.503 10.4296 153.074 10.6566 151.988 10.5346L151.977 10.5331C151.625 10.4922 151.087 10.411 150.253 10.2693C150.028 10.2309 150.086 10.1564 149.744 10.1147C149.647 10.1032 149.063 10.1415 147.987 9.9873C147.819 9.96319 147.815 9.89109 147.641 9.8593C147.238 9.78489 146.417 9.82235 146.811 9.64164C145.216 9.37361 145.856 9.64426 145.35 9.65686C145.013 9.66569 145.096 9.53934 144.806 9.53523C144.446 9.53096 144.691 9.69532 143.275 9.46763C143.436 9.47681 143.597 9.4861 143.757 9.49553C143.682 9.4493 143.606 9.40309 143.529 9.35691C142.707 9.35161 142.798 9.2317 142.392 9.39565C141.812 9.23705 141.301 9.1732 140.491 9.10418C138.915 8.97281 139.702 9.27828 137.936 8.79875C137.642 8.81263 137.349 8.82712 137.053 8.84169C136.583 8.70766 136.979 8.63237 136.268 8.54373C136.806 8.81469 135.31 8.5965 135.037 8.77088C135.014 8.72183 134.992 8.67279 134.969 8.62375C134.81 8.60973 134.651 8.59586 134.492 8.58215C134.488 8.61956 134.484 8.65698 134.481 8.69439C134.272 8.64809 134.063 8.60203 133.852 8.55598C133.688 8.57963 133.525 8.60345 133.363 8.62742C133.107 8.52742 132.852 8.42783 132.597 8.32865C132.433 8.31015 132.267 8.29165 132.102 8.2734C132.15 8.3333 132.198 8.39322 132.246 8.45315C132.035 8.41778 131.824 8.38268 131.614 8.34788C131.854 8.45851 131.689 8.55322 131.035 8.50153C130.49 8.4594 131.115 8.31167 129.941 8.30788C129.858 8.3082 129.709 8.43288 128.599 8.38102C127.283 8.32234 127.924 8.26445 127.69 8.24615C127.643 8.24269 127.232 8.28648 126.855 8.27463C126.641 8.26783 126.442 8.20101 126.411 8.19945C126.277 8.19451 126.234 8.2708 126.049 8.26358C125.579 8.24465 124.967 8.17495 124.504 8.15717C124.296 8.14905 124.1 8.18682 124.009 8.18329C123.865 8.17742 123.693 8.0987 123.545 8.09274C122.998 8.07066 122.2 8.27787 121.953 7.94197C121.427 8.22491 120.37 7.83338 120.441 8.03787C119.063 7.91089 115.487 8.18227 115.59 7.8555C114.855 8.16492 114.904 7.95552 114.599 7.97089C114.26 7.98966 114.44 8.03833 114.161 8.0487C113.52 8.07392 112.936 8.08858 112.333 8.14836C112.419 8.09277 112.509 8.03738 112.602 7.98223C111.975 8.02876 112.19 8.11257 111.609 8.21005C111.083 8.3069 111.008 8.32173 110.96 8.29702C110.922 8.27232 110.966 8.20932 110.894 8.16276C110.912 8.19496 110.832 8.23597 110.756 8.27113C110.338 8.41478 109.589 8.60949 109.483 8.62906C109.392 8.64565 109.737 8.38698 108.861 8.69087C108.922 8.72153 108.984 8.75227 109.045 8.78309C108.621 8.83624 107.559 9.24877 107.374 9.29473C107.289 9.3142 106.72 9.10247 106.41 9.52455C106.345 9.49717 106.281 9.4699 106.217 9.44273C105.784 9.65205 105.359 9.86638 104.94 10.0868C104.84 10.0349 104.74 9.98333 104.639 9.93229C104.499 9.98666 104.361 10.0413 104.223 10.097C104.343 10.1293 104.461 10.1625 104.58 10.1959C103.709 10.4971 102.76 11.0582 102.488 10.9105C102.333 11.0343 102.181 11.1595 102.031 11.2852C101.884 11.2644 101.734 11.2454 101.586 11.2269C100.815 11.6505 100.832 11.712 100.369 12.082C100.356 12.014 100.343 11.9459 100.33 11.8777C99.9975 12.1753 99.3829 12.6615 98.9088 13.0197C98.68 13.1877 98.2466 13.4105 98.2018 13.4587C98.1808 13.4804 98.1115 13.6298 98.0257 13.7699C97.8212 14.0264 97.5555 14.2703 97.4067 14.1703C96.2649 15.1868 95.6453 15.3456 95.1453 15.6404C94.8211 15.8231 94.7058 15.9687 94.3343 16.1666C93.8051 16.4476 93.2423 16.6614 92.9297 16.8004C92.7519 16.8798 92.7454 16.96 92.6206 17.0141C92.0314 17.2634 92.3543 17.0588 91.7267 17.3016C91.6709 17.3231 91.2375 17.5775 90.7069 17.7359C90.4102 17.8288 89.614 17.9559 89.5473 17.9716C89.2466 18.0508 89.5369 18.1932 88.4428 18.2173C88.4815 18.2469 88.5202 18.2765 88.5591 18.3059C87.2809 18.6864 87.0347 18.5305 86.7721 18.566C86.7387 18.5706 86.4286 18.6829 86.2335 18.6995C85.9072 18.7274 85.7658 18.6533 85.6934 18.6578C85.4373 18.6759 84.5844 18.7929 84.0172 18.7278C84.1538 18.9898 82.1433 19.1042 81.7193 18.7715C81.363 18.8083 81.0094 18.8374 80.6486 18.8577C80.4919 18.7948 80.3399 18.7308 80.1868 18.665C80.0848 18.6996 79.9821 18.7336 79.8786 18.7668C79.3787 18.5958 78.8851 18.4078 78.4059 18.2047C78.3533 18.2991 78.3002 18.3933 78.2467 18.4873C78.1069 18.4461 77.9647 18.4029 77.8275 18.3594C77.7358 18.2544 77.6452 18.1487 77.5557 18.0425C77.3779 18.015 77.1972 17.9845 77.0207 17.9528C76.9624 17.9984 76.9037 18.0437 76.8448 18.0889C76.4912 18.0164 76.3552 17.9095 76.2293 17.8058C76.006 17.6192 75.8106 17.4704 74.5946 17.325C74.3397 17.1711 74.0946 17.0147 73.853 16.8543C73.4645 16.9297 72.9787 16.5442 72.5532 16.3511C72.2521 16.2144 72.2241 16.3027 71.8343 16.0934C71.448 15.8836 71.5075 15.8157 71.4777 15.7988C71.1737 15.6221 70.912 15.5589 70.7042 15.4209C70.6733 15.4003 70.6424 15.2641 70.3784 15.1021C70.1168 14.9414 69.9017 14.9408 69.5359 14.7033C69.3495 14.5825 69.3382 14.4761 69.1763 14.3742C68.3939 13.8797 67.5084 13.9168 67.2269 13.238C67.0744 13.2357 66.2377 13.1761 65.9656 13.115C65.5193 13 65.7105 12.9393 65.5329 12.8915C65.5067 12.8874 65.3663 12.8917 64.9909 12.8738C64.9815 12.8735 64.9736 12.8743 64.967 12.876C64.8999 12.8859 64.9164 12.9289 64.9023 12.9293C64.118 12.9145 62.6077 12.8373 61.7416 12.8088C61.6736 12.8064 61.2499 12.957 60.5871 12.7252C59.57 12.8599 57.6859 12.468 56.3459 12.6689C56.1646 12.6687 55.9433 12.6049 55.8616 12.6045C55.1505 12.601 55.4159 12.7838 53.8262 12.4795C53.9498 12.5721 53.5835 12.6409 53.0561 12.6171C52.2602 12.5811 52.8291 12.4341 52.1982 12.4269C52.1966 12.4735 52.1951 12.5202 52.1935 12.5669C50.7326 12.3923 50.4369 12.5819 48.9772 12.5302C48.4454 12.5112 47.6775 12.3786 47.5505 12.3735C47.5025 12.372 46.9188 12.4623 46.8635 12.4609C46.5557 12.4523 46.3832 12.3936 46.1158 12.3827C45.226 12.3465 44.1724 12.449 44.3723 12.1911C44.1268 12.237 43.8784 12.2827 43.635 12.3286C42.7315 12.0058 42.0236 12.3658 41.8451 12.0817C41.6785 12.1312 41.5117 12.1807 41.3447 12.2301C37.4052 12.0215 33.4635 11.784 29.5156 11.4944C29.3513 11.5734 27.6313 11.4238 27.5428 11.4027C27.1418 11.3112 27.5842 11.1493 26.7545 11.1333C26.6559 11.2111 26.5574 11.2889 26.459 11.3666C25.4134 11.316 25.9221 11.2694 25.517 11.1809C25.346 11.1782 25.3955 11.248 25.1607 11.2345C24.5137 11.1975 23.5193 11.1247 22.5281 11.0425C21.5555 10.9622 20.5724 10.8649 19.8923 10.7955C19.614 10.7671 19.6623 10.7103 19.5755 10.7008C19.3342 10.6755 18.8533 10.7009 18.3778 10.6468C15.4172 10.3144 11.2712 9.70713 8.34196 9.20146C8.14184 9.16709 8.12809 9.09083 7.99482 9.06717C7.81102 9.03487 7.38097 9.02997 7.18804 8.99433C7.00491 8.9608 6.89507 8.88768 6.69765 8.85086C5.79865 8.68259 4.56876 8.58488 3.62918 8.26715C3.54955 8.24062 2.58671 7.78523 2.56661 7.76204C2.45167 7.62656 3.37674 7.59551 1.93154 7.1877C3.27137 7.25841 2.90036 6.9368 1.21465 6.52828C2.07632 6.63886 2.93715 6.74684 3.80047 6.85262C3.80659 6.82245 3.81271 6.79228 3.81883 6.7621C3.06138 6.48565 2.2984 6.31023 1.11635 6.09852C1.15801 6.07661 1.19963 6.05468 1.24121 6.03275C2.31001 6.06721 3.57701 6.24671 4.40288 6.18174C3.25692 5.85312 2.11325 5.51998 0.971582 5.18265C1.03381 5.17032 1.09597 5.15796 1.15804 5.14558C1.7247 5.18178 2.95368 5.34949 3.42544 5.37052C5.23339 5.45337 1.89733 4.9647 2.46608 4.92822C4.33526 5.24057 6.20759 5.5415 8.08102 5.82876C8.15346 5.7605 1.00171 4.35697 1.12349 4.07833C1.71512 4.15853 2.30531 4.23733 2.89318 4.31455C2.64393 4.20129 2.39507 4.08786 2.14399 3.97384C2.22004 3.96351 2.29597 3.95314 2.37178 3.94273C3.37034 4.05146 4.36692 4.15651 5.36735 4.2586C2.3496 3.83567 0.958797 3.55288 0.332261 2.877C0.416561 2.87681 0.500722 2.87657 0.584744 2.87629C1.17563 3.33569 4.26856 3.73306 5.91447 3.91727C5.59448 3.76335 4.14837 3.61316 3.85098 3.50152C3.76767 3.47002 4.07984 3.44807 3.88572 3.37953C3.38093 3.20293 1.18147 2.71311 1.52283 2.65114C1.7401 2.61499 5.32987 3.09722 6.0255 3.21013C4.411 2.82033 2.73682 2.50773 1.13021 2.07072C2.20038 2.01906 3.15979 1.89726 5.04268 2.18638C5.63628 2.16329 1.67847 1.3504 1.59723 1.26599C2.30005 1.31287 2.9973 1.35722 3.69912 1.40066C3.11187 1.3238 2.52615 1.246 1.94229 1.16736C1.94445 1.14396 1.94661 1.12056 1.94877 1.09716C3.47518 1.24175 4.88751 1.26948 6.61164 1.5529C6.57574 1.42204 5.5414 1.27192 5.0388 1.18989ZM168.837 11.8426C168.868 11.9475 168.215 11.8914 167.848 11.8662C167.902 11.8883 167.956 11.9104 168.01 11.9325C167.23 11.8655 165.772 11.727 165.704 11.9216C165.142 11.9072 165.402 11.7514 165.223 11.719C165.153 11.7062 164.416 11.7546 163.841 11.5874C163.702 11.5773 163.563 11.5671 163.424 11.5568C163.392 11.62 163.36 11.6831 163.328 11.7463C163.14 11.652 162.954 11.5576 162.766 11.4629C164.791 11.6108 166.813 11.7355 168.834 11.8425C168.835 11.8425 168.836 11.8426 168.837 11.8426ZM148.717 9.8917C148.011 9.75905 146.918 9.5602 147.118 9.76658C147.572 9.81528 148.025 9.86505 148.477 9.91571C148.557 9.90768 148.637 9.89967 148.717 9.8917ZM78.5373 18.0604C77.911 17.7634 77.2865 17.7491 76.3399 17.4487C76.2759 17.4281 76.211 17.4063 76.145 17.383C76.135 17.419 76.125 17.4549 76.115 17.4909C76.1723 17.4979 76.2396 17.5103 76.3157 17.5266C76.8506 17.6444 77.8141 17.9442 78.5373 18.0604ZM187.326 11.7031C187.492 11.7047 187.661 11.7031 187.833 11.6976C187.314 11.9087 187.116 11.8663 186.727 11.862L186.67 11.8636C186.573 11.859 186.458 11.857 186.309 11.863C186.269 11.8647 186.283 11.9104 186.269 11.9108C186.096 11.9157 185.971 11.8612 185.827 11.8628C185.541 11.8655 185.345 11.922 184.848 11.9179C184.492 11.9143 184.484 11.826 184.354 11.8272C184.227 11.829 183.163 12.0592 182.452 11.9407C181.334 11.751 185.168 11.7738 186.667 11.734L186.722 11.7325C187.024 11.7208 187.251 11.7058 187.326 11.7031ZM191.968 10.6617C191.833 10.7197 191.698 10.7763 191.562 10.8318C191.917 10.5394 191.116 10.9015 190.453 11.1218C190.448 10.9993 191.791 10.5585 192.309 10.2719C192.197 10.4027 192.083 10.5326 191.968 10.6617ZM174.525 11.3493C175.037 11.3584 174.944 11.5161 174.921 11.5634C174.759 11.5565 174.597 11.5494 174.433 11.5422C174.464 11.4779 174.495 11.4136 174.525 11.3493ZM178.365 11.441C178.204 11.5461 177.096 11.5558 176.565 11.544C176.543 11.5432 176.686 11.4883 176.318 11.4797C176.211 11.4778 175.097 11.6519 175.35 11.4129C176.363 11.4269 177.35 11.4357 178.364 11.441C178.364 11.441 178.365 11.441 178.365 11.441ZM179.483 11.5409C179.275 11.5693 179.065 11.5974 178.852 11.6252C178.745 11.5702 178.636 11.5151 178.532 11.4602C178.766 11.4547 179.014 11.4495 179.249 11.4436C179.327 11.476 179.405 11.5085 179.483 11.5409ZM27.3474 10.0528C27.3917 10.1113 27.436 10.1698 27.4804 10.2283C27.6643 10.2757 28.5981 10.0998 28.311 10.0332C27.9883 10.0401 27.667 10.0466 27.3474 10.0528ZM23.5005 9.63766C23.3124 9.59389 23.1253 9.54999 22.9393 9.50598C22.8441 9.53752 22.7491 9.56903 22.6543 9.60051C22.5245 9.64331 22.3929 9.68576 22.2595 9.72785C22.3871 9.74783 22.5142 9.76773 22.6381 9.78647C23.4415 9.90862 24.1952 9.99269 24.0703 9.74238C24.285 9.76002 24.5009 9.77751 24.7178 9.79484C24.5266 9.89391 24.5461 9.9336 25.1111 10.0508C25.2513 9.90257 25.8272 10.0289 26.5041 10.0441C26.0123 9.99824 25.5341 9.9524 25.0386 9.90405C25.0408 9.87614 25.043 9.84823 25.0452 9.82033C26.1436 9.91599 24.7862 9.63335 24.0779 9.68618C24.0251 9.64445 23.971 9.60259 23.9177 9.56078C23.7782 9.58648 23.6392 9.6121 23.5005 9.63766ZM100.309 10.6631C100.188 10.6976 100.067 10.7336 99.9463 10.7701C99.7179 11.3259 100.38 10.5336 101.135 10.4785C100.828 10.3852 101.784 9.91694 101.836 9.88105C101.694 9.8665 101.549 9.85367 101.406 9.84127C101.03 10.1085 100.664 10.3821 100.309 10.6631ZM97.3084 12.34C97.4737 12.2975 97.3479 12.45 97.1126 12.6815C96.5664 13.2121 95.5362 13.899 95.0588 14.1477C94.8771 14.2468 94.4968 14.3491 94.3752 14.4301C94.3138 14.5066 94.2511 14.5831 94.1873 14.6596C94.0383 14.6092 92.61 15.4764 92.0204 15.772C91.9446 15.7525 91.8711 15.7318 91.7971 15.7111C91.5858 15.8154 91.365 15.9197 91.1513 16.0175C91.1633 15.9635 91.1751 15.9096 91.1867 15.8557C91.0394 15.9699 90.8889 16.0831 90.7353 16.1953C90.088 16.4785 90.4195 16.1018 89.9409 16.3366C89.4047 16.5921 90.3698 16.4552 90.386 16.5495C90.8378 16.3828 91.8493 15.9468 92.2979 15.7479C92.5528 15.6328 92.3413 15.9383 93.3604 15.2386C93.6197 15.1663 93.8841 15.0862 94.1431 15.0032C94.5495 14.7047 94.9407 14.3956 95.3274 14.0669C95.4411 14.0731 95.5546 14.0786 95.6679 14.0833C95.7292 14.0677 96.6091 13.2744 96.5301 13.2607C96.717 13.1843 96.9659 13.0368 97.2415 12.8352C97.5359 12.6313 97.8913 12.3642 98.2719 12.0969C98.3122 12.0244 98.3534 11.9519 98.3955 11.8793C97.8219 12.3816 98.1767 11.9887 97.9527 12.0668C97.8234 12.1117 97.4588 12.2939 97.3084 12.34ZM33.3646 10.2985C31.9077 10.3718 32.8108 10.2949 31.2475 10.1986C31.3516 10.2896 31.4571 10.3806 31.5603 10.4715C32.336 10.3656 33.5992 10.5418 33.3661 10.2986C33.3656 10.2985 33.3651 10.2985 33.3646 10.2985ZM17.9933 9.33748C18.8291 9.38214 18.4259 9.20537 19.4828 9.2798C19.4834 9.27986 19.4839 9.27991 19.4844 9.27997C18.9453 9.21177 18.3945 9.13986 17.8576 9.06751C17.903 9.15753 17.9482 9.24752 17.9933 9.33748ZM66.0005 11.7543C66.5544 11.9089 66.4634 11.8207 66.9422 12.1086C67.7803 12.2435 67.1098 12.0209 67.155 11.8851C66.9573 11.86 66.7637 11.8431 66.5751 11.8349C66.1777 11.5915 66.6038 11.6313 66.6098 11.6206C66.6095 11.6205 66.6091 11.6204 66.6087 11.6203C66.6201 11.5789 66.6372 11.5724 66.4725 11.5034C66.3083 11.5813 66.1502 11.6649 66.0005 11.7543ZM68.5961 12.5159C68.3384 12.4951 68.1897 12.5521 68.7202 12.8955C68.7206 12.8957 68.721 12.8959 68.7214 12.8961C68.865 12.7276 69.3321 13.1777 69.5961 13.3138C69.6747 13.3318 69.7545 13.3507 69.8337 13.3695C69.411 13.0665 69.0003 12.7788 68.5961 12.5159ZM80.2836 17.1218C80.2601 17.3567 79.5831 17.2952 80.5013 17.6282C80.684 17.6445 80.8716 17.659 81.0557 17.6708C81.1812 17.6297 81.3056 17.5874 81.4289 17.5441C83.7517 18.0428 84.4467 17.4268 80.5233 17.4326C80.5228 17.4327 80.5222 17.4328 80.5216 17.4329C80.4412 17.3297 80.3619 17.2259 80.2836 17.1218ZM76.3165 16.2482C76.2489 16.3566 76.1809 16.4648 76.1123 16.5726C75.7133 16.12 74.9711 16.1525 74.1494 15.5375C74.0514 15.5335 73.9538 15.529 73.8564 15.5241C73.4965 15.3105 70.5224 13.5771 71.0798 14.1129C71.3096 14.3451 71.9834 14.6005 72.0379 14.6328C72.215 14.7432 72.4034 14.9707 72.7269 15.1367C72.9132 15.2323 73.3642 15.3276 73.7576 15.5182C74.4029 15.8351 75.4352 16.4914 76.5428 16.7933C76.9175 16.8968 77.2826 16.9583 77.6331 16.9627C77.7155 17.0223 77.7983 17.0813 77.8816 17.1398C78.8395 17.3336 78.5388 17.15 79.4086 17.4486C80.1067 17.0435 75.8644 16.6664 76.8501 16.396C76.8495 16.3959 76.849 16.3957 76.8485 16.3955C76.7923 16.3809 76.7361 16.366 76.6799 16.3508C76.5576 16.3177 76.4365 16.2835 76.3165 16.2482ZM54.3598 11.204C54.306 11.0965 53.307 11.2285 53.5487 10.9822C53.222 11.0602 52.8864 11.1378 52.5572 11.2154C52.5589 11.2391 52.5606 11.2627 52.5622 11.2864C52.8875 11.2785 53.2186 11.2707 53.5413 11.2624C53.5413 11.2998 53.5414 11.3373 53.5414 11.3747C54.0227 11.2551 56.0485 11.3752 55.9821 11.5055C56.0914 11.4527 56.2001 11.3999 56.3082 11.347C57.2744 11.5275 58.1085 11.3885 59.1551 11.5647C59.2389 11.5204 59.3221 11.4762 59.4049 11.4319C59.457 11.4707 59.509 11.5095 59.5607 11.5483C59.9311 11.5625 60.3344 11.5773 60.7094 11.5912C61.9538 11.4706 59.538 11.2167 59.2462 11.2305C59.2064 11.2326 59.2112 11.3297 58.9614 11.3383C58.5368 11.3547 56.1062 11.1904 55.348 11.2307C55.3433 11.1663 55.3386 11.1018 55.334 11.0374C55.011 11.0931 54.6889 11.1488 54.3598 11.204ZM85.41 17.4146C85.4776 17.4733 85.5455 17.5316 85.6139 17.5897C86.6556 17.4032 87.3114 17.3224 87.0097 17.1605C87.0091 17.1606 87.0086 17.1607 87.008 17.1608C86.4784 17.2635 85.9471 17.3481 85.41 17.4146ZM152.374 9.35565C152.372 9.30315 152.3 9.25381 152.178 9.21381C151.99 9.1521 151.692 9.11328 151.339 9.11939C151.361 9.16072 151.384 9.20206 151.406 9.2434C151.599 9.20222 151.805 9.27968 152.148 9.37084C152.374 9.42851 152.649 9.49003 153.017 9.53014C153.026 9.46531 153.034 9.40048 153.043 9.33565C152.819 9.34274 152.596 9.34942 152.374 9.35565ZM84.5053 17.4644C84.1865 17.413 83.2907 17.6745 83.8859 17.666C84.3443 17.6567 84.6788 17.4933 84.5053 17.4644ZM14.7538 8.81095C14.9636 8.85191 15.1774 8.89316 15.3891 8.93387C15.5075 8.89282 15.624 8.85146 15.7424 8.81027C15.7418 8.8102 15.7413 8.81014 15.7408 8.81008C15.4152 8.81139 15.079 8.81075 14.7538 8.81095ZM63.7112 11.6366C64.1456 11.6407 64.5819 11.6443 64.989 11.6468C65.2023 11.6473 65.4122 11.6589 65.6236 11.6817C65.6332 11.6464 65.6429 11.611 65.6526 11.5757C65.3237 11.6167 65.1296 11.5901 64.9906 11.5555C64.878 11.5337 64.796 11.5087 64.7311 11.5041C64.7319 11.5041 64.7326 11.5042 64.7333 11.5042C64.1705 11.465 63.6614 11.4335 63.1553 11.3794C63.3468 11.4654 63.5149 11.5508 63.7112 11.6366ZM61.231 11.3527C61.3559 11.612 61.4901 11.6457 62.6243 11.4905C62.5819 11.458 62.5392 11.4255 62.4963 11.393C61.9123 11.3989 61.5797 11.4502 61.683 11.3188C61.5349 11.3302 61.3842 11.3415 61.231 11.3527ZM70.8558 13.8356C70.7766 13.6938 69.8404 13.2418 69.8718 13.3091C69.8753 13.3275 70.9951 14.1028 70.8558 13.8356ZM160.49 10.2119C160.245 10.1712 160 10.13 159.757 10.0885C160.085 10.0912 160.418 10.0935 160.744 10.0945C160.66 10.1337 160.575 10.1728 160.49 10.2119ZM163.212 10.0749C163.384 10.121 162.797 10.3071 163.838 10.4472C163.078 10.394 162.315 10.3376 161.554 10.2776C161.915 10.271 162.273 10.2633 162.634 10.2551C162.577 10.184 162.52 10.1129 162.463 10.0418C162.712 10.0532 162.963 10.0643 163.212 10.0749ZM164.015 10.3064C163.619 10.102 165.774 10.2475 165.974 10.2807C166.018 10.2888 166.222 10.436 166.298 10.4698C165.973 10.4478 165.647 10.4253 165.321 10.4023C165.427 10.4518 165.533 10.5012 165.639 10.5506C165.257 10.5382 164.875 10.525 164.493 10.5111C164.659 10.4813 164.825 10.4513 164.991 10.4212C164.665 10.3835 164.341 10.3453 164.015 10.3064ZM155.35 9.52887C155.628 9.56605 155.895 9.60121 156.168 9.63647C156.121 9.5653 156.074 9.49412 156.027 9.42293C155.863 9.40433 155.704 9.38595 155.538 9.3666C155.476 9.42072 155.413 9.47481 155.35 9.52887ZM160.922 10.0116C160.499 10.291 159.475 9.50613 160.718 9.87449C160.843 9.91161 160.962 9.98458 160.922 10.0116ZM166.778 10.3728C167.642 10.1992 167.417 10.6931 166.626 10.4919C166.587 10.4813 166.714 10.3855 166.778 10.3728ZM173.13 10.7267C173.198 10.7315 173.315 10.9019 173.974 10.7758C174.081 10.7994 174.185 10.8228 174.295 10.8465C174.042 10.9133 171.872 10.8534 172.179 10.7049C172.512 10.7191 172.787 10.7052 173.13 10.7267ZM171.068 10.0139C170.741 10.0009 170.418 9.98768 170.094 9.97396C170.198 10.0313 170.302 10.0887 170.405 10.1459C170.246 10.1511 170.085 10.1561 169.925 10.161C169.657 10.0569 169.387 9.95235 169.121 9.84775C169.828 9.87548 170.53 9.90071 171.239 9.92426C171.182 9.95414 171.125 9.98402 171.068 10.0139ZM162.456 9.30981C163.075 9.42522 163.844 9.41734 164.856 9.50232C164.856 9.50251 164.857 9.50271 164.857 9.50291C164.908 9.50734 164.992 9.58435 165.155 9.59886C165.293 9.61419 168.035 9.71931 167.813 9.82289C166.747 9.86266 166.363 9.67169 166.091 9.92016C166.043 9.86059 165.995 9.80102 165.947 9.74143C164.935 9.57341 164.632 9.74505 164.054 9.77316C164.059 9.73113 164.065 9.68911 164.07 9.64708C163.688 9.61391 163.307 9.58005 162.926 9.54525C162.977 9.57731 163.029 9.60936 163.081 9.64138C162.945 9.63064 162.81 9.61977 162.675 9.60882C162.355 9.45718 161.941 9.39345 162.456 9.30981ZM172.536 10.1595C172.847 9.856 175.764 10.2099 177.102 10.1882C176.384 10.3555 175.312 10.179 174.547 10.1431C173.07 10.073 174.085 10.2371 173.832 10.2776C173.709 10.2979 172.876 10.0525 172.536 10.1595ZM160.173 9.16836C160.909 9.26155 161.324 9.22331 161.953 9.39451C161.897 9.41339 161.842 9.43228 161.787 9.45112C161.568 9.41295 159.798 9.18618 160.173 9.16836ZM179.056 10.3385C177.634 10.1777 178.331 10.4907 177.592 10.2474C178.09 10.2512 178.558 10.2529 179.059 10.2546C179.058 10.2826 179.057 10.3106 179.056 10.3385ZM82.7149 16.3057C82.0811 16.292 81.387 16.185 80.9987 16.2678C81.425 16.3275 81.8556 16.3739 82.2838 16.407C82.4287 16.3748 82.5724 16.341 82.7149 16.3057ZM98.2103 9.05083C98.0763 9.09603 97.6642 9.45707 97.6175 9.48923C97.5289 9.54685 97.53 9.49586 97.5227 9.48743C96.9494 9.87796 97.5523 9.63094 97.147 9.94111C97.0739 9.9887 96.067 10.6423 95.7021 10.9695C95.6971 10.9738 95.6921 10.9781 95.6871 10.9824C95.123 11.468 94.4932 11.8695 94.2576 12.0213C93.8595 12.2828 93.1434 12.8105 92.4355 13.1558C92.1426 13.299 92.0101 13.2737 91.713 13.4081C89.8481 14.3492 85.8215 15.3804 83.9499 15.3232C83.4904 15.3329 83.0529 15.2321 82.8141 15.238C82.6244 15.2739 82.4315 15.307 82.2395 15.3374C81.6708 14.9737 81.4646 15.262 80.8263 15.2276C80.4252 15.2029 80.2512 15.074 80.198 15.0672C79.8466 15.0178 79.6635 15.0344 79.3853 14.991C79.0751 14.9432 78.6389 14.7994 78.5298 14.7811C78.4628 14.7643 78.641 14.9731 77.4564 14.6366C77.3816 14.6143 77.3068 14.5914 77.2321 14.568C76.1057 14.2157 75.0417 13.7301 73.9909 13.1701C74.182 13.7245 74.6391 13.6472 75.1182 13.8509C75.2473 13.9053 75.1399 13.9268 75.2529 13.9745C75.5713 14.1116 76.2099 14.3012 76.4739 14.4099C76.7599 14.5291 76.6118 14.6361 77.0044 14.7077C77.0243 14.7111 76.9828 14.6337 77.0745 14.6522C77.1169 14.6608 77.1581 14.6693 77.1981 14.6777C78.0193 14.8399 78.3043 15.0251 79.4037 15.2417C80.1605 15.5399 84.8755 15.5472 85.0309 15.4474C85.9113 15.6712 80.8907 15.8308 80.3172 15.5693C80.1139 15.5355 80.3369 15.4982 80.1532 15.4593C80.0776 15.4438 79.353 15.469 78.6579 15.3229C78.2674 15.2429 77.6993 15.0842 77.1328 14.8885C76.4865 14.668 75.8558 14.3925 75.4584 14.2227C71.752 12.6948 68.7791 9.74184 65.024 9.68459C62.1663 9.61804 59.3211 9.53188 56.4392 9.44819C56.2962 9.44404 56.1079 9.51581 55.6323 9.50169C46.8366 9.23417 37.7206 8.80774 28.8211 8.24233C26.8804 8.11741 24.95 8.04469 22.9989 7.81787C22.9351 7.82702 22.8715 7.83616 22.808 7.84528C22.6278 7.87136 22.441 7.89643 22.2569 7.92135C22.4134 7.9245 22.6055 7.94143 22.7976 7.96395C23.3746 8.03177 24.0346 8.15861 24.1135 8.16645C24.1536 8.17029 24.3891 8.12612 24.7683 8.15992C25.3015 8.2071 25.5355 8.28013 25.5795 8.28361C25.7157 8.29431 25.6309 8.22903 25.7598 8.23925C26.7233 8.31572 27.4751 8.35354 28.3659 8.41505C29.3659 8.48371 29.8758 8.62627 30.6092 8.55352C30.6889 8.60543 30.7686 8.65732 30.8485 8.7092C31.4106 8.54512 34.6594 8.76099 35.9761 8.8396C36.3921 8.86531 36.3144 8.94325 36.4542 8.95068C36.5434 8.95514 36.5137 8.84675 37.6004 8.92378C38.1475 8.96241 38.2874 9.04763 38.5622 9.05878C38.7114 9.06469 38.6911 8.986 38.9053 8.99654C40.145 9.05735 41.158 9.1297 42.369 9.19795C42.7101 9.21701 42.7119 9.28186 42.7883 9.28438C43.0713 9.29387 43.562 9.20553 44.2783 9.2359C45.4522 9.28661 47.8037 9.3788 48.7606 9.46661C48.9025 9.47973 49.0172 9.56169 49.1214 9.56436C49.2791 9.56812 49.3435 9.48931 49.3712 9.48988C49.8956 9.50737 49.5774 9.57137 49.9282 9.56557C50.1207 9.56253 50.3248 9.47729 50.7664 9.48218C51.3487 9.4885 51.2253 9.594 51.4735 9.59148C51.4995 9.59064 51.5103 9.51466 51.7515 9.52027C52.6594 9.542 53.9711 9.56642 54.8399 9.59308C55.0876 9.60064 55.259 9.65725 55.6122 9.66864C56.2982 9.69296 60.2539 9.76683 60.5792 9.80234C60.6125 9.80625 60.263 9.91033 60.8162 9.92046C60.973 9.87738 61.1432 9.83458 61.3091 9.79162C61.5867 9.87325 61.8351 9.95407 62.1168 10.0355C62.1204 9.7767 63.7171 9.77119 63.6876 10.0353C63.8709 10.0498 64.0474 10.0641 64.2168 10.0781C64.4604 9.9521 64.6977 9.95367 65.0196 9.92931C65.1489 9.91963 65.2969 9.90855 65.4844 9.89214C65.5811 9.95598 65.6745 10.0215 65.7656 10.0887C65.7948 10.0544 65.8243 10.0203 65.8541 9.98637C66.1631 10.2242 66.7434 10.1463 66.8145 10.1661C67.0736 10.2266 67.2498 10.3356 67.3691 10.3719C67.8148 10.4967 68.7937 10.8354 69.2842 11.131C69.3071 11.1446 69.2447 11.2097 69.3827 11.2927C69.6317 11.4444 69.7172 11.3453 69.9888 11.6646C70.0761 11.67 70.1637 11.676 70.2517 11.6825C70.316 11.7409 70.3797 11.7992 70.4438 11.8581C70.8833 12.0972 71.3242 12.3464 71.7703 12.5963C71.296 12.488 71.713 12.8293 72.2127 12.9853C72.3819 13.0379 72.2938 12.8838 72.3505 12.9009C72.4146 12.9345 74.4484 14.0901 74.5842 14.1901C74.6977 14.2129 74.8123 14.2354 74.9254 14.2561C74.9534 14.3309 74.9821 14.4057 75.0115 14.4805C75.0767 14.4881 75.142 14.4954 75.2073 14.5025C75.5712 14.7407 76.455 14.9927 77.0619 15.1174C77.3331 15.1757 77.5452 15.2164 77.6303 15.2458C77.7778 15.294 77.5758 15.4983 78.3158 15.6542C78.3564 15.596 78.3966 15.5378 78.4367 15.4794C78.6035 15.5084 78.7751 15.5362 78.9438 15.5612C79.2541 15.6323 79.697 15.8227 79.7 15.9016C79.8072 15.8716 79.9136 15.8407 80.0192 15.8089C80.2629 16.0118 81.7132 16.1077 82.2914 16.0155C82.4595 16.0672 82.6281 16.1169 82.7972 16.1646C83.0242 16.1107 83.2537 16.0531 83.4779 15.9919C83.9996 15.9602 83.4507 16.0694 83.562 16.0738C83.8025 16.0931 84.9935 15.8521 84.9307 16.0479C85.0943 16.0335 85.2595 16.0171 85.4238 15.9989C85.502 15.9337 85.5792 15.8681 85.6555 15.8021C85.9584 15.956 86.4384 15.8352 87.4358 15.7046C87.5096 15.644 87.5825 15.5831 87.6546 15.5219C87.9695 15.5179 88.2864 15.507 88.6039 15.4894C88.6475 15.402 88.6903 15.3145 88.7323 15.227C88.8595 15.1817 88.9835 15.1362 89.1105 15.0885C89.421 15.1717 89.8362 14.8548 90.0922 14.839C90.4654 14.8144 90.2463 15.0244 89.5984 15.2507C89.6893 15.3688 91.5964 14.6369 92.0151 14.417C91.9775 14.4078 91.9399 14.3985 91.9024 14.3891C91.4697 14.5952 91.0253 14.7894 90.5826 14.9672C90.1066 14.8179 91.3482 14.4609 91.8755 14.1784C91.9234 14.1525 92.16 13.9313 92.7017 13.6812C92.908 13.5918 93.7925 13.3137 93.9435 13.2323C95.1973 12.5706 94.1845 12.932 95.4555 12.3279C95.1663 12.3566 95.6942 12.1096 96.2474 11.6502C96.317 11.5924 96.388 11.5321 96.4585 11.4698C96.5461 11.3808 97.3345 10.6271 97.3989 10.5868C97.7651 10.3084 97.4312 10.7058 97.9611 10.3059C98.0069 10.2311 98.0535 10.1563 98.1008 10.0815C98.232 9.99707 98.3625 9.91498 98.4953 9.83329C99.4722 9.62899 99.5416 9.32613 99.8248 9.13463C99.9385 9.0597 99.8245 9.2175 100.127 9.0374C100.242 8.96992 100.338 8.83774 100.658 8.67321C101.661 8.1661 102.132 8.29881 102.963 7.60569C103.127 7.5886 103.293 7.57223 103.457 7.5573C103.536 7.46601 103.616 7.37487 103.697 7.28387C104.523 7.14177 104.187 7.09404 104.467 6.99197C105.205 6.71948 106.749 6.25123 106.924 6.34082C107.482 5.84353 108.366 5.94838 108.619 5.86481C108.762 5.78553 108.906 5.70663 109.05 5.62818C109.241 5.61429 109.431 5.6011 109.622 5.58865C109.539 5.45566 109.75 5.39696 109.993 5.37068C110.195 5.35465 110.474 5.3759 110.516 5.37039C110.585 5.34417 112.009 5.05456 112.573 5.02359C113.11 4.97758 114.077 5.01007 114.17 5.00745C114.262 5.00211 115.208 4.88245 115.942 4.87213C116.582 4.84106 120.448 4.99982 120.196 4.87096C119.948 4.82838 119.588 4.78933 119.275 4.7673C118.314 4.66722 112.65 4.66139 111.266 4.91643C110.823 4.96932 110.342 5.04551 109.935 5.14796C107.557 5.74815 105.159 6.49422 102.908 7.38599C102.75 7.44874 102.697 7.38638 102.561 7.44115C102.354 7.52382 101.87 7.81881 101.671 7.90773C100.924 8.23247 100.036 8.66819 99.6544 8.87476C98.7979 9.33368 98.2081 9.64144 97.5925 10.042C97.4067 10.1591 96.5836 10.8395 95.9743 11.3248C95.9434 11.349 95.9125 11.3725 95.8818 11.3954C95.751 11.4744 95.6132 11.5551 95.4821 11.6271C95.5814 11.5416 95.7424 11.401 95.9076 11.2453C96.2574 10.9121 96.7284 10.5147 97.0062 10.3116C97.608 9.87076 97.9766 9.71989 98.2076 9.57318C98.3989 9.44553 99.3829 8.78902 99.865 8.54364C100.014 8.46549 100.081 8.52291 100.208 8.45785C100.898 8.10215 101.827 7.67737 102.42 7.34334C102.174 7.46849 103.789 6.86856 103.876 6.84478C104.021 6.78997 104.15 6.65912 104.449 6.55071C105.022 6.34521 105 6.52114 105.669 6.12539C105.863 6.10984 106.056 6.09542 106.25 6.08199C106.193 5.86534 108.553 5.44989 109.141 5.03338C109.147 4.98545 106.147 5.78322 105.908 5.8786C104.435 6.32536 102.331 7.18931 100.972 7.80107C100.558 7.9727 99.2452 8.50869 99.1546 8.57048C99.006 8.65695 99.1778 8.64666 99.1143 8.68493C97.8246 9.48833 98.4085 8.98756 98.2103 9.05083ZM164.09 9.29748C163.627 9.25359 163.166 9.20873 162.703 9.16237C162.74 9.11837 162.777 9.07437 162.815 9.03035C163.026 9.06564 163.236 9.10063 163.447 9.13535C163.612 9.12018 163.777 9.10485 163.942 9.08938C163.991 9.15876 164.04 9.22813 164.09 9.29748ZM165.245 9.18584C165.648 9.19097 165.661 9.29074 165.753 9.3021C166.029 9.33607 166.271 9.31261 166.539 9.33208C166.214 9.54572 165.562 9.39255 165.245 9.18584ZM156.97 8.36888C157.057 8.38964 157.634 8.70664 158.346 8.54187C158.849 8.6677 159.361 8.79234 159.865 8.91432C159.004 8.72045 157.782 8.71537 157.355 8.6646C157.193 8.64565 157.17 8.56518 157.042 8.55002C156.29 8.46282 155.551 8.55276 155.5 8.28788C156.198 8.44568 156.855 8.34244 156.97 8.36888ZM161.47 8.89582C161.585 8.95964 161.701 9.02339 161.816 9.08707C161.382 9.05034 160.95 9.01267 160.519 8.97375C160.641 8.93022 160.762 8.88641 160.883 8.84261C161.079 8.86056 161.274 8.8783 161.47 8.89582ZM128.454 5.19623C128.718 5.21369 128.983 5.23164 129.249 5.2501C129.237 5.21002 128.932 5.18999 128.823 5.1564C128.823 5.15643 128.824 5.15646 128.824 5.15649C128.702 5.11861 128.758 5.0717 128.534 5.03499C128.507 5.08874 128.481 5.14248 128.454 5.19623ZM21.9502 7.72406C21.5023 7.69261 17.3915 7.23495 17.7242 7.4102C17.8929 7.5031 19.3071 7.60298 19.7208 7.64757C20.2786 7.71173 21.7811 8.017 21.9502 7.72406ZM14.6757 6.86077C14.5868 6.99529 17.1484 7.34229 17.4025 7.34431C17.3515 7.31777 17.2734 7.2629 17.2038 7.24416C16.8668 7.15545 15.2199 6.97261 14.6757 6.86077ZM113.602 4.48363C113.809 4.54409 114.023 4.60556 114.237 4.66822C114.179 4.57709 114.118 4.48618 114.058 4.39528C113.903 4.42418 113.751 4.45363 113.602 4.48363ZM95.3694 11.7659C92.4653 13.8496 89.0446 15.0506 85.5407 15.4906C85.8422 15.4147 86.1474 15.3316 86.444 15.2431C89.4327 14.766 92.5388 13.632 94.9324 11.9102C95.0807 11.8629 95.2206 11.8191 95.3694 11.7659ZM156.042 7.84122C155.157 7.73784 154.406 7.71536 153.467 7.4792C154.389 7.49528 154.824 7.71431 155.736 7.66469C155.736 7.66475 155.737 7.66481 155.737 7.66487C155.841 7.72406 155.94 7.78252 156.042 7.84122ZM136.391 5.45226C136.665 5.41165 136.939 5.37145 137.214 5.33167C136.891 5.30117 136.568 5.27125 136.247 5.24191C136.295 5.31201 136.343 5.38213 136.391 5.45226ZM66.8835 9.52139C66.4598 9.48432 65.7611 9.3379 65.0308 9.30531C64.1513 9.26233 63.3003 9.21098 62.8654 9.29466C62.8216 9.30496 63.2563 9.38702 62.5431 9.51176C63.0759 9.49483 63.4856 9.47393 63.519 9.36422C63.6675 9.40474 63.8496 9.4459 64.009 9.48652C64.2731 9.46346 64.5513 9.44049 64.8196 9.41709C64.7934 9.50668 64.8076 9.51931 65.0276 9.48337C65.0777 9.47548 65.1383 9.46566 65.2114 9.45499C65.3924 9.4901 65.5735 9.53144 65.7499 9.57843C65.8303 9.54026 65.9142 9.50357 65.9978 9.46798C66.147 9.554 66.2924 9.64411 66.4333 9.73776C67.0453 9.79498 66.7105 9.596 66.8835 9.52139ZM69.8605 10.7335C69.8008 10.6871 68.8094 10.1812 68.0038 9.94008C67.1968 9.69704 66.6337 9.64347 67.5064 10.0093C67.9742 10.1529 68.4344 10.3315 68.8877 10.5334C68.6658 10.0248 69.7611 10.9094 69.848 10.9782C70.3049 11.26 70.9439 11.5293 71.2823 11.7324C71.5728 11.9066 71.7131 12.065 71.9209 12.1848C72.6217 12.5961 73.7606 13.2257 73.9909 13.1701C73.4284 12.8709 72.8691 12.5501 72.2978 12.2209C71.6934 11.8766 71.2427 11.425 70.0105 10.9727C69.7388 10.8036 69.8917 10.7573 69.8605 10.7335ZM138.021 5.42405C137.973 5.56998 139.612 5.69667 139.627 5.63929C139.634 5.60477 139.103 5.55175 139.027 5.53103C139.027 5.53098 139.026 5.53093 139.026 5.53088C138.995 5.52195 139.162 5.48058 138.913 5.43958C138.615 5.43393 138.318 5.42875 138.021 5.42405ZM28.3801 7.89771C28.1638 7.80696 23.0992 7.44548 22.9526 7.46243C22.9116 7.47016 22.9642 7.51202 22.9465 7.53199C24.1324 7.5163 25.8005 7.79003 26.9221 7.88108C27.2373 7.90671 27.1459 7.83983 27.1642 7.84005C27.165 7.8401 27.1657 7.84016 27.1664 7.84021C27.3413 7.85303 28.1305 8.05619 28.3801 7.89771ZM61.2457 9.32662C61.4649 9.35545 61.6789 9.38406 61.8876 9.41246C61.9412 9.36697 61.9964 9.32152 62.0549 9.27613C62.0544 9.27612 62.0539 9.2761 62.0534 9.27609C61.7822 9.29302 61.5232 9.31011 61.2457 9.32662ZM53.7811 8.96516C53.832 8.99966 53.8829 9.03416 53.9336 9.06865C54.4808 9.09044 55.018 9.11146 55.5625 9.13227C55.5065 9.14916 55.4504 9.16605 55.3942 9.18292C56.2283 9.25748 56.5481 9.15094 56.9979 9.18041C56.9974 9.18039 56.9969 9.18038 56.9964 9.18037C57.0437 9.18364 57.0994 9.25376 57.2739 9.26098C57.663 9.27748 58.8294 9.33446 58.9592 9.26877C59.2595 9.13004 56.9534 9.13742 56.5111 9.11714C56.3198 9.10852 56.0883 9.04178 55.9695 9.03687C55.8396 9.03173 55.6594 9.10741 55.338 9.09526C55.2533 9.09198 54.2202 8.96516 53.7811 8.96516ZM44.2006 8.71168C44.3656 8.79283 44.7184 8.73589 44.846 8.75327C44.8765 8.75739 44.6357 8.80953 44.9237 8.84004C45.0072 8.80113 45.0905 8.7622 45.1737 8.72325C44.8506 8.71964 44.5261 8.71578 44.2006 8.71168ZM140.772 5.63118C140.727 5.61007 139.85 5.5245 139.807 5.53054C139.268 5.61062 141.084 5.78457 140.772 5.63118ZM162.881 8.06186C162.492 7.84175 167.274 8.38831 167.742 8.39759C167.712 8.51991 166.575 8.32086 167.164 8.52948C166.599 8.40015 165.017 8.33869 164.648 8.28314C164.424 8.25013 164.375 8.13936 164.341 8.13344C164.208 8.11204 163.019 8.14323 162.881 8.06186ZM171.707 8.71087C171.255 8.66388 170.792 8.61543 170.341 8.56671C170.877 8.58268 171.423 8.59796 171.958 8.61142C171.874 8.64455 171.791 8.67775 171.707 8.71087ZM172.285 8.68427C172.276 8.5646 173.825 8.73128 174.229 8.72084C173.765 8.90401 173.003 8.67603 172.285 8.68427ZM146.618 5.99379C145.917 5.82678 145.567 6.15183 146.45 6.10083C146.477 6.09887 146.647 6.00165 146.618 5.99379ZM66.7784 8.97063C66.6745 8.92221 65.3584 8.64501 65.0417 8.69447C65.0148 8.69661 64.9965 8.70011 64.989 8.70523C64.9048 8.76258 64.9419 8.79617 65.0395 8.81757C65.2784 8.85998 65.8366 8.88307 66.0659 8.96773C66.5934 9.17459 65.788 9.09292 67.1045 9.31542C67.0421 9.33791 66.9807 9.36115 66.9194 9.38489C67.662 9.59081 67.4914 9.28762 67.6372 9.29319C67.6831 9.29404 68.1442 9.47441 68.2323 9.49285C69.3597 9.68749 66.9152 8.92799 66.7784 8.97063ZM128.989 4.27625C127.585 4.07637 128.168 4.27335 126.721 4.17937C126.662 4.25634 128.803 4.33392 128.989 4.27625ZM79.3915 14.5926C78.6597 14.469 78.015 14.2832 77.3822 14.0832C76.7786 13.8916 76.1936 13.6811 75.556 13.4771C75.5508 13.5861 76.4059 13.9787 77.3361 14.232C78.4265 14.5414 79.5879 14.6599 79.3915 14.5926ZM11.5957 5.41982C15.0958 6.16188 18.9804 6.70855 22.8776 7.05026C25.2225 7.25248 27.5837 7.4062 29.8707 7.55479C30.5358 7.5979 30.5903 7.68949 30.8315 7.69536C30.989 7.69917 30.966 7.62649 31.1752 7.63936C38.7276 8.09894 45.9725 8.30357 53.2155 8.58267C53.6667 8.6007 55.8902 8.8216 56.3672 8.60447C56.7347 8.4406 55.1246 8.52951 54.8682 8.51975C54.6691 8.51253 54.6628 8.43021 54.5292 8.4258C54.387 8.42111 54.5029 8.48081 54.3374 8.47652C53.6455 8.45898 52.8748 8.4122 52.2574 8.39646C46.0939 8.23629 40.0999 7.97298 33.9789 7.61567C33.2386 7.57212 33.3951 7.51505 33.3578 7.51266C33.3573 7.51279 33.3568 7.51293 33.3563 7.51306C30.081 7.31597 26.4215 7.17087 22.8937 6.86579C22.1443 6.80092 21.3986 6.72477 20.6642 6.6386C17.7217 6.28642 14.7861 5.8639 11.8562 5.40723C11.7694 5.41147 11.6828 5.4157 11.5957 5.41982ZM69.7128 10.3098C69.4823 9.92889 69.322 10.072 68.0944 9.49042C67.9757 9.49242 67.8575 9.49629 67.74 9.50213C68.4212 9.71672 69.0778 9.99802 69.7148 10.3108C69.7141 10.3105 69.7134 10.3102 69.7128 10.3098ZM61.0762 8.82538C60.8781 8.48663 57.8757 8.64693 56.5482 8.54328C56.2975 8.70464 58.2524 8.68433 58.7062 8.71355C58.9258 8.72826 60.1685 8.93384 61.0885 8.85986C61.0844 8.84837 61.0803 8.83687 61.0762 8.82538ZM157.918 7.11295C157.702 7.10028 157.486 7.08731 157.272 7.07406C157.801 7.16839 158.34 7.2612 158.871 7.35092C158.02 7.24275 157.163 7.12848 156.308 7.00721C156.475 6.95622 156.642 6.90504 156.81 6.85367C157.184 6.94193 157.545 7.02739 157.918 7.11295ZM155.138 6.83602C156.642 6.98902 155.049 6.98829 154.691 6.85863C154.473 6.78132 154.986 6.82071 155.138 6.83602ZM151.271 6.18785C151.651 6.17649 152.224 6.2261 152.599 6.30095C152.927 6.36549 153.108 6.44981 152.857 6.53079C152.759 6.50146 152.666 6.47647 152.575 6.45464C151.983 6.31134 151.477 6.30186 150.538 6.1136C150.704 6.08956 150.87 6.06554 151.037 6.04186C151.037 6.04197 151.038 6.04207 151.039 6.04218C151.116 6.09071 151.194 6.13926 151.271 6.18785ZM155.84 6.7714C156.804 7.02732 153.975 6.63924 154.876 6.65529C154.916 6.65667 155.8 6.76197 155.84 6.7714ZM17.8926 5.98855C17.7641 6.05368 18.5192 6.14112 18.7702 6.17479C19.8554 6.32327 21.2543 6.43662 22.3845 6.55085C22.3028 6.51702 22.2204 6.48305 22.1374 6.44893C20.722 6.3141 19.3085 6.15783 17.8926 5.98855ZM25.9329 6.84611C26.7101 6.90574 27.4947 6.96307 28.2763 7.01777C28.3493 7.02292 28.6978 6.9786 28.4434 6.94427C27.6042 6.91428 26.7662 6.88164 25.9329 6.84611ZM74.2556 12.3247C73.7592 12.0141 75.3538 12.5885 75.1815 12.7632C74.8714 12.6247 74.5621 12.4774 74.2556 12.3247ZM79.3311 14.0803C78.9702 14.0318 78.6139 13.9733 78.2543 13.9027C78.261 13.8754 78.2677 13.848 78.2744 13.8207C78.6257 13.9182 78.9752 14.0041 79.3311 14.0803ZM14.8468 5.55165C15.2305 5.69934 16.1768 5.80558 16.7627 5.87941C16.3713 5.74814 15.3966 5.66575 14.8468 5.55165ZM65.8653 8.47511C65.8836 8.50387 65.4819 8.4697 65.0458 8.46226C64.4651 8.45024 63.7987 8.40301 64.2903 8.34343C64.5359 8.35938 64.8147 8.37577 65.0471 8.39107C65.3234 8.407 65.595 8.4351 65.8653 8.47511ZM60.9473 8.23911C61.4681 8.23734 61.8599 8.26886 61.7529 8.36956C61.4884 8.35902 61.2013 8.34782 60.9341 8.33696C60.9385 8.30435 60.9429 8.27173 60.9473 8.23911ZM148.631 5.62895C147.768 5.52462 146.909 5.42467 146.045 5.32798C146.08 5.30395 146.116 5.27994 146.151 5.25593C146.984 5.34925 147.813 5.44564 148.645 5.54608C148.64 5.5737 148.636 5.60133 148.631 5.62895ZM14.3972 5.23736C13.8056 5.17754 13.2207 5.11682 12.6277 5.05337C13.2161 5.15381 13.7966 5.25154 14.384 5.3484C14.3889 5.31129 14.3938 5.27418 14.3987 5.23707C14.3982 5.23717 14.3977 5.23727 14.3972 5.23736ZM160.393 6.70659C157.791 6.32913 161.14 6.50906 161.815 6.75491C161.816 6.75481 161.816 6.75471 161.817 6.75461C161.876 6.77678 161.741 6.84801 161.839 6.88978C161.575 6.82984 161.311 6.76951 161.049 6.7088C160.803 6.73357 160.553 6.75762 160.306 6.78142C160.227 6.75589 160.149 6.73032 160.071 6.70472C160.178 6.70541 160.286 6.70603 160.393 6.70659ZM170.997 7.39061C173.379 7.53081 170.928 7.61215 169.758 7.37984C169.77 7.34314 170.775 7.37756 170.997 7.39061ZM164.748 7.03671C164.372 7.02763 163.995 7.01773 163.619 7.00712C163.573 6.97985 163.527 6.95257 163.481 6.92528C163.77 6.92454 164.06 6.92334 164.349 6.9217C164.482 6.96014 164.615 6.99847 164.748 7.03671ZM152.534 5.40576C151.976 5.30032 151.24 5.42075 152.701 5.60951C152.805 5.62264 152.925 5.63656 153.06 5.65057C153.063 5.62255 153.066 5.59453 153.069 5.56651C152.992 5.56038 152.768 5.55512 152.757 5.55129C152.738 5.54463 152.747 5.5144 152.716 5.48106C152.695 5.45522 152.644 5.42663 152.534 5.40576ZM175.445 6.86181C175.511 6.85372 175.566 6.5593 176.258 6.89442C176.471 6.88413 176.681 6.87351 176.899 6.86301C176.952 6.93049 177.005 6.99796 177.058 7.0654C176.227 6.98334 176.144 7.11168 176.082 7.11218C175.806 7.11349 176.013 7.05367 175.835 7.04552C175.374 7.02489 174.338 7.02509 174.817 6.85155C174.99 6.78951 175.378 6.86976 175.445 6.86181ZM173.842 6.62194C173.941 6.65136 173.614 6.72314 173.689 6.75118C173.755 6.77607 174.741 6.90929 174.467 7.04382C174.302 7.03027 174.142 7.01687 173.979 7.00318C173.926 6.96049 173.872 6.91778 173.819 6.87505C173.659 6.90478 173.499 6.93438 173.338 6.96384C173.074 6.85198 172.519 6.69613 173.191 6.64789C172.946 6.64452 172.698 6.64083 172.45 6.63682C172.319 6.67783 172.188 6.71874 172.056 6.75958C172.128 6.69072 172.199 6.62184 172.27 6.55293C172.796 6.5772 173.315 6.59995 173.842 6.62194ZM181.51 6.9198C181.479 6.95655 181.449 6.99329 181.418 7.03002C182.331 6.98275 183.737 6.9769 182.934 7.19907C181.704 7.19803 180.472 7.18669 179.24 7.16848C179.159 7.13782 179.077 7.10712 178.995 7.07637C179.915 7.21309 179.638 6.74303 180.437 6.89759C180.572 6.92348 180.173 7.07505 181.024 6.99326C180.995 6.95493 180.965 6.91659 180.935 6.87824C181.13 6.89237 181.321 6.90623 181.51 6.9198ZM188.682 6.67375C187.454 6.94919 188.741 6.47732 189.016 6.48439C189.015 6.48453 189.015 6.48467 189.015 6.4848C189.761 6.55728 188.325 6.8874 188.258 6.87996C188.156 6.90513 187.936 7.2021 187.306 6.95156C187.769 6.90372 188.208 6.81339 188.682 6.67375ZM184.23 6.96572C184.364 6.95964 184.29 7.01545 184.347 7.01513C184.348 7.01513 184.348 7.01514 184.349 7.01514C184.877 7.01237 185.91 6.99193 186.585 7.01337L186.543 7.01454C186.884 7.0204 187.118 7.03339 187.186 7.09082C187.066 7.10629 186.844 7.12961 186.548 7.1444L186.587 7.14331C185.604 7.17497 183.941 7.15604 183.839 7.06018C183.972 7.02888 184.095 6.99732 184.23 6.96572ZM178.379 6.96748C177.874 6.83248 179.018 6.85506 179.324 6.9185C179.384 6.93216 178.895 7.10712 178.379 6.96748ZM139.236 3.04388C138.092 3.00167 139.578 3.22045 139.05 3.27957C139.268 3.29173 139.487 3.3043 139.704 3.31681C139.549 3.22581 139.392 3.13474 139.236 3.04388ZM88.9647 11.7239C88.7379 11.7848 88.8642 11.8144 88.8452 11.8218C88.6963 11.8682 88.5422 11.8578 88.4875 11.8805C87.4672 12.2926 88.1807 12.1451 88.1956 12.1559C88.2375 12.2135 87.9764 12.37 88.3885 12.3314C88.6192 12.2392 88.846 12.1435 89.0722 12.0432C89.1995 12.0402 89.326 12.0362 89.4552 12.0301C89.8902 11.7893 89.2776 11.9864 89.176 11.9068C89.1369 11.8761 89.5477 11.6832 88.9647 11.7239ZM137.221 2.62325C137.026 2.72321 136.561 2.8296 136.993 2.98842C136.994 2.98847 136.994 2.98851 136.995 2.98856C137.074 3.01767 137.407 3.06081 137.507 3.10085C138.255 3.01456 137.989 2.82564 137.221 2.62325ZM92.7249 9.74674C93.0511 9.57406 93.3624 9.39385 93.6569 9.2039C93.6951 9.26362 93.7332 9.32341 93.7712 9.38328C93.6064 9.48453 93.4417 9.57929 93.2661 9.67608C93.2285 9.7407 93.1893 9.80579 93.1485 9.8713C93.3977 9.80353 93.6456 9.72865 93.8903 9.64576C94.0195 9.52757 94.1494 9.40315 94.2633 9.28535C94.3755 9.17662 94.4893 9.069 94.6046 8.96249C94.4622 9.03519 94.3206 9.1096 94.1798 9.18582C94.1636 9.19271 94.1473 9.19963 94.1308 9.20658C94.1437 9.19448 94.1561 9.18291 94.1681 9.17186C94.8335 8.58859 94.7974 8.82982 95.4501 8.42444C95.6282 8.21416 95.8122 8.0057 95.9982 7.80137C96.3584 7.63776 96.7181 7.48577 97.0796 7.34227C97.6127 6.98495 97.6406 6.91539 97.2277 7.07106C97.4606 6.83243 97.8319 6.77433 98.1496 6.56048C98.176 6.54281 98.085 6.5007 98.1091 6.48639C99.8345 5.50725 99.843 5.78856 100.126 5.65497C100.326 5.56528 101.067 5.08104 101.063 5.03232C101.056 4.96916 99.2618 5.44171 101.903 4.32344C100.459 4.70177 98.9959 5.62396 100.102 5.38939C99.659 5.54502 97.8294 6.56971 97.7141 6.64546C97.5376 6.73232 97.5478 6.6111 97.3329 6.73292C97.2043 6.81131 96.9884 7.17838 95.9037 7.66131C95.8 7.77644 95.6984 7.89175 95.5965 8.00911C95.4633 8.06504 95.3314 8.12161 95.1983 8.18074C95.3691 7.92016 95.5467 7.66165 95.7281 7.40696C95.0402 7.98126 94.35 8.37323 93.869 8.81544C93.7833 8.89899 93.699 8.99391 93.6382 9.09582C93.2852 9.33787 93.0908 9.43663 93.1914 9.25084C93.0831 9.32708 92.9762 9.39965 92.8642 9.47328C92.8186 9.56496 92.7721 9.65611 92.7249 9.74674ZM133.864 2.49672C133.332 2.34299 133.12 2.56349 133.203 2.58344C133.669 2.69461 134.142 2.57691 133.864 2.49672ZM89.827 11.5492C90.3421 11.4174 90.8589 11.262 91.3637 11.0865C91.3313 11.0192 91.2989 10.9519 91.2665 10.8846C90.8 11.1245 90.3154 11.3477 89.827 11.5492ZM139.419 2.89344C139.468 2.95467 139.518 3.01592 139.567 3.07718C140.239 2.93949 140.858 3.29951 141.187 3.27361C141.258 3.2679 141.127 3.15452 140.996 3.11933C140.913 3.09654 139.537 2.8856 139.419 2.89344ZM166.287 5.90672C166.044 5.92765 165.801 5.94828 165.558 5.96863C165.576 5.90676 165.594 5.84488 165.612 5.783C165.731 5.77976 165.85 5.77644 165.97 5.77307C166.075 5.81767 166.181 5.86222 166.287 5.90672ZM163.548 5.80508C163.121 5.76638 162.692 5.7265 162.267 5.68573C163.901 5.76212 162.566 5.62494 163.563 5.62255C163.558 5.68339 163.553 5.74424 163.548 5.80508ZM159.238 5.29846C159.295 5.26617 159.351 5.23386 159.407 5.20154C159.836 5.2432 160.256 5.28261 160.684 5.32159C160.426 5.16702 160.169 5.01208 159.913 4.85677C159.759 4.84181 159.602 4.82644 159.446 4.81095C159.377 4.97348 159.308 5.13598 159.238 5.29846ZM78.9128 11.9261C78.7574 11.8863 78.3259 11.8259 78.089 11.8014C77.9957 11.7932 77.9355 11.7928 77.9407 11.8073C77.9827 11.8289 78.0249 11.8502 78.0673 11.8713C78.3226 11.9963 78.5751 12.1132 78.838 12.2255C78.8579 12.1533 78.8778 12.0811 78.8977 12.0089C78.9331 12.0564 78.9688 12.1037 79.0047 12.1509C79.1916 12.1678 79.3775 12.1813 79.5651 12.192C79.6431 12.2751 79.722 12.3577 79.802 12.4396C79.9084 12.3839 80.0149 12.3274 80.1201 12.2698C79.2706 11.9787 79.2781 12.097 79.0969 12.0567C79.0057 12.0341 78.9592 11.9745 78.9327 11.9438C78.9261 11.9379 78.9195 11.932 78.9128 11.9261ZM89.9888 10.9735C88.9862 11.3524 88.4405 11.7212 87.6397 11.7651C88.2425 12.0363 91.206 10.5692 92.2683 10.2008C92.3433 10.0931 92.4147 9.98586 92.4824 9.87937C91.9889 10.2338 91.5539 10.3242 91.2774 10.4435C91.0596 10.5359 91.1058 10.5778 91.0893 10.5851C91.0885 10.5855 91.0877 10.5859 91.0869 10.5862C90.5689 10.8043 90.3869 10.818 89.9888 10.9735ZM140.37 2.7137C140.045 2.59043 139.46 2.54026 139.44 2.66884C139.763 2.73908 140.083 2.80955 140.404 2.8807C140.341 2.8407 140.426 2.73475 140.37 2.7137ZM158.78 4.88845C158.534 4.82144 157.922 4.79504 158.172 4.93375C158.217 4.95868 158.826 4.94151 158.454 5.10708C159.037 5.16311 158.923 4.92701 158.78 4.88845ZM109.433 2.04157C109.715 1.97267 109.974 1.9197 110.227 1.87314C110.278 1.81133 110.33 1.74968 110.384 1.68819C110.065 1.79576 109.776 1.90521 109.433 2.04157ZM143.201 2.92911C143.463 3.21675 143.99 3.02535 144.512 3.29879C144.714 3.32401 144.916 3.34946 145.118 3.3751C145.118 3.37515 145.119 3.37521 145.119 3.37527C145.133 3.30643 145.147 3.23759 145.161 3.16874C144.507 3.08674 143.854 3.00691 143.201 2.92911ZM95.9351 7.38655C96.0788 7.33018 96.2223 7.2756 96.3666 7.22211C96.5706 7.04678 96.7788 6.8738 96.9866 6.7055C96.8495 6.75575 96.7118 6.80762 96.5741 6.86089C96.3595 7.03208 96.1451 7.20802 95.9351 7.38655ZM146.756 3.32788C146.052 3.20843 145.76 3.3974 146.664 3.50927C147.045 3.55661 147.492 3.45375 146.756 3.32788ZM66.2889 6.58692C66.6018 6.64587 66.9104 6.71799 67.2108 6.80126C67.3248 6.77753 67.4392 6.75539 67.5539 6.73477C67.1381 6.66332 66.7149 6.61297 66.2889 6.58692ZM162.066 5.21752C162.034 5.26185 162.002 5.30618 161.97 5.35049C161.758 5.32293 161.546 5.29512 161.335 5.26706C161.393 5.22538 161.45 5.18368 161.507 5.14197C161.693 5.16735 161.88 5.19253 162.066 5.21752ZM68.3293 7.06578C68.5585 7.14679 68.7823 7.23325 69.0011 7.32407C69.1581 7.3581 69.3133 7.39425 69.4673 7.43247C69.2734 7.32893 69.0747 7.22838 68.8702 7.13147C68.6912 7.10636 68.5108 7.08433 68.3293 7.06578ZM153.413 4.25336C153.311 4.21641 153.079 4.19869 152.9 4.20174C152.655 4.20464 152.497 4.24572 152.888 4.33538C152.922 4.34388 152.971 4.35401 153.026 4.36466C153.619 4.47707 153.452 4.26718 153.413 4.25336ZM154.837 4.38545C153.845 4.1485 154.535 4.79266 155.774 4.58554C154.565 4.4879 154.894 4.39835 154.837 4.38545ZM163.768 4.98975C163.794 4.99202 163.809 5.07184 164.013 5.09057C164.75 5.15798 165.721 5.25906 166.249 5.30017C167.519 5.40658 171.42 5.49102 171.866 5.73621C171.958 5.7887 171.733 5.91947 171.771 5.92879C171.881 5.95518 172.541 5.91962 172.414 6.01804C171.771 5.98479 171.132 5.94997 170.492 5.9134C170.654 5.84842 170.812 5.78317 170.975 5.71807C169.382 5.66894 169.905 5.69252 169.439 5.8269C169.174 5.74878 168.908 5.6703 168.641 5.59145C168.05 5.61785 167.459 5.6427 166.868 5.66584C167.004 5.62816 167.14 5.59036 167.276 5.55254C166.399 5.40747 166.641 5.48021 166.149 5.55996C166.151 5.51329 166.154 5.46663 166.156 5.41996C165.295 5.47386 165.139 5.32114 164.953 5.30595C164.573 5.27448 164.042 5.7919 162.631 5.12465C161.997 5.33739 162.055 4.80193 161.672 5.04356C160.663 4.65637 162.621 4.93718 163.555 5.01858C163.556 5.01862 163.556 5.01865 163.557 5.01869C163.627 5.02507 163.519 4.96633 163.768 4.98975ZM158.43 4.7866C159.077 4.61105 156.621 4.32802 157.396 4.76307C157.515 4.78745 157.635 4.81175 157.755 4.83595C157.979 4.81987 158.205 4.80347 158.431 4.78675C158.431 4.7867 158.43 4.78665 158.43 4.7866ZM134.903 1.87957C132.545 1.78208 133.867 2.0322 134.678 1.9637C134.838 1.95019 134.928 1.92069 134.903 1.87957ZM88.4802 11.3155C88.4611 11.352 88.4418 11.3885 88.4222 11.4251C89.0644 11.213 90.326 10.8263 90.2282 10.6465C89.6597 10.8971 89.075 11.1207 88.4802 11.3155ZM93.0921 8.95296C92.984 9.02049 92.5123 9.2982 92.6048 9.32384C92.8374 9.2364 93.0631 9.14538 93.2782 9.05278C93.3483 8.96128 93.4131 8.87151 93.4723 8.78392C93.3564 8.86148 93.1204 8.93711 93.0921 8.95296Z" fill="#2AF5FF"/>
</svg>
