<svg width="224" height="20" viewBox="0 0 224 20" fill="none" xmlns="http://www.w3.org/2000/svg">
<path d="M1.64792 0.399599C2.89988 0.0657892 4.60715 0.255078 5.89531 0.577708C6.31274 0.676785 6.12658 1.2162 6.40168 1.30924C6.95133 1.49015 7.42109 1.20892 7.9805 1.43039C8.15749 1.50677 7.98068 2.35485 8.16114 2.41594C9.17514 2.74366 10.1232 2.49103 11.1362 2.63022C16.1505 3.31745 21.0512 3.48148 26.0788 3.72249C27.7719 3.80038 29.773 4.50889 31.476 4.13148C31.6772 4.08661 31.5376 3.35297 31.5745 3.29125C32.0165 2.57358 32.0305 3.26114 32.1873 3.71583C32.235 3.86008 32.2965 3.98092 32.3898 4.02617C33.9428 4.76744 35.6659 4.79843 37.1741 4.48579C37.8067 4.35087 37.1462 2.8989 37.7918 3.70892C37.8366 3.76364 37.692 4.54901 37.865 4.62938C38.2565 4.81003 39.0021 4.65737 39.3127 4.71433C39.9092 4.82807 40.0159 4.81853 40.5611 4.81905C41.3109 4.82657 42.2309 5.20256 43.0518 5.01445C43.2228 4.97203 42.9849 4.17277 43.2572 4.03269C43.5291 3.89279 44.2621 3.95169 44.5136 4.13786C44.7645 4.3241 44.6662 4.95591 44.7119 5.09992C45.0854 6.31546 45.9355 4.61615 46.0365 4.57332C48.0064 3.83986 49.7351 4.787 51.6132 4.76996C53.0306 4.75508 54.5542 4.42758 55.9027 4.46382C57.5044 4.51015 58.8849 4.93882 60.4409 4.85847C60.6061 4.85091 60.4091 3.90829 60.611 3.89717C62.7606 3.77985 64.8909 3.87782 67.0146 4.51187C67.2285 4.57629 66.954 5.40486 67.1678 5.51875C68.483 6.19759 70.5416 7.83175 71.3217 4.22583C72.2128 4.36658 73.2817 4.51247 74.0744 5.23993C74.5851 5.70814 74.088 6.61001 74.7162 6.22553C74.858 6.13987 74.6744 5.34955 74.887 5.28086C75.7847 4.99239 76.7558 5.25046 77.6411 4.8436C77.8211 4.75899 77.7731 4.0509 77.8243 3.92349C78.2544 2.89163 78.9653 4.59977 79.1206 4.72411C80.3015 5.65127 81.1653 5.2893 82.268 5.31472C82.5238 5.32103 82.2238 4.36922 82.4702 4.34113C83.7474 4.20819 85.0696 4.29397 86.3173 4.72022C86.595 4.81733 86.3365 5.62655 86.4691 5.7144C87.054 6.09193 87.1894 4.56234 87.7501 4.89498C87.8683 4.96315 87.799 5.6564 87.8204 5.73265C88.154 6.9295 88.454 5.23654 88.5411 5.19947C89.6419 4.69265 90.3385 6.46408 91.4028 6.21824C91.5301 6.18705 91.2472 5.30832 91.6047 5.27429C93.9825 5.04241 96.4969 5.29601 98.8559 6.01092C99.2213 6.12088 98.9564 6.77861 98.979 6.85999C99.3472 8.13173 99.5989 6.43191 99.7183 6.36851C100.654 5.9126 101.54 7.34449 102.189 5.32208C106.176 6.04914 110.155 4.93831 114.094 6.78284C114.145 6.80425 114.048 7.6414 114.149 7.68048C115.363 8.15998 115.138 6.85611 115.948 5.26961C116.152 4.87124 116.745 6.79861 116.797 6.93996C116.989 7.46082 116.776 8.70572 116.841 8.8068C117.381 9.60081 117.329 5.47805 118.071 5.48249C118.094 5.48954 117.991 6.24751 118.052 6.32343C118.244 6.56178 118.438 6.26179 118.624 6.52444C119.05 7.13216 119.188 9.13635 119.848 7.9758C119.935 7.82519 119.814 5.48584 120.484 5.60166C120.751 5.64981 121.919 5.61916 122.24 5.77332C122.562 5.9273 122.334 6.67898 122.356 6.7118C123.219 7.71528 122.876 8.12545 123.311 9.60423C123.744 11.0775 123.649 7.57143 123.834 7.18171C124.019 6.79312 124.657 7.62054 124.812 7.90763C124.967 8.19485 124.766 8.672 124.905 8.83495C125.821 9.89974 125.325 7.09859 125.634 6.54484C126.353 5.23357 126.924 7.8379 127.578 8.09819C127.756 8.16849 127.615 7.57525 127.774 7.52123C128.407 7.31518 128.761 8.12933 129.505 7.39201C129.625 7.27186 130.224 5.71413 130.587 6.86423C130.639 7.03007 130.483 7.67651 130.749 7.82392C131.142 8.04509 131.865 8.19297 132.309 7.9803C132.632 7.82292 132.273 6.75238 132.674 7.08746C132.852 7.23707 132.515 7.85857 132.849 8.08756C133.111 8.26822 133.692 8.2938 134.077 8.2873C134.186 8.28561 134.28 8.28164 134.35 8.27771C134.681 8.25863 134.507 7.4474 134.534 7.39309C134.7 7.08209 135.33 6.69744 135.384 6.69892C138.162 6.62607 140.697 8.01905 143.407 7.60448C143.623 7.57318 143.491 6.71749 143.524 6.70391C144.262 6.35647 143.654 8.61818 144.15 9.3851C144.101 7.65165 144.398 7.96956 144.897 7.78694C145.15 7.69771 145.023 7.02489 145.047 6.95656C145.438 5.94332 145.673 7.26327 145.735 7.5335C145.962 8.52754 146.241 7.36158 146.392 8.02609C146.543 8.68566 146.157 9.65363 146.636 9.64888C146.781 9.03096 146.447 7.40453 146.823 7.14795C148.258 6.17689 150.861 7.49814 151.985 7.65547C153.101 7.81182 153.487 7.7068 154.125 7.94639C155.311 8.38118 154.903 7.16822 155.648 6.63703C156.418 6.10706 155.969 9.0549 156.06 9.69361C156.147 10.332 156.278 9.68087 156.396 10.0338C156.513 10.3866 156.227 10.8112 156.52 10.9507C156.819 11.09 157.688 9.98394 157.807 9.32229C158.08 7.92095 157.75 6.43126 158.545 6.97556C158.59 7.00781 158.416 7.78077 158.59 7.86485C159.982 8.50742 161.434 8.59536 162.824 9.17775C163.016 9.25908 162.81 10.1174 162.921 10.1745C164.063 10.7718 163.711 9.29817 164.409 7.70271C164.181 9.85287 164.488 11.1856 165.374 11.2327C165.908 11.2617 165.851 10.3166 166.222 9.66629C166.334 9.47023 166.687 10.1311 166.772 9.69087C167.052 8.25186 166.757 6.61844 167.646 7.29752C167.685 7.32966 167.528 8.1173 167.665 8.17039C168.547 8.5169 168.709 7.00683 169.676 6.85545C170.435 6.73679 171.756 7.70008 172.607 7.87144C172.533 10.296 173.353 9.76066 173.73 8.09617C173.766 8.10127 173.802 8.10573 173.838 8.10968C174.352 8.16799 174.933 8.11034 175.428 8.33634C175.614 8.41865 175.478 9.11846 175.5 9.19477C175.844 10.3917 176.116 8.76918 176.236 8.70748C177.564 8.11029 178.606 9.35836 179.878 8.16917C179.923 8.12632 180.014 6.44254 180.336 7.6767C180.357 7.76175 179.93 8.52326 180.524 8.58965C181.11 8.65609 182.214 9.57129 183.042 8.79834C183.248 8.61237 183.752 7.24927 184.147 8.32137C184.199 8.46695 184.136 8.94963 184.212 9.21918C184.454 10.0781 184.613 8.37646 184.89 9.82552C185.165 11.2745 185.785 12.363 186.61 11.3707C186.637 11.3419 186.841 9.99361 187.102 10.0167C187.524 10.0549 188.101 10.3398 188.538 10.3337C188.747 10.3303 188.618 9.49134 188.655 9.47623C190.051 9.01494 191.04 9.76725 192.534 10.0982C192.805 10.1605 193.607 9.02099 194.127 9.92655C194.705 10.9179 194.091 15.0304 195.437 14.0549C195.974 13.6646 196.685 8.4467 197.641 11.154C199.525 10.4891 201.268 11.877 203.154 10.9231C203.239 10.8808 203.513 9.42436 203.711 9.44449C204.005 9.47719 204.167 10.1584 204.378 10.2035C205.268 10.4099 206.074 9.82825 206.932 9.91976C207.258 9.95301 207.142 10.657 207.529 10.6967C207.915 10.7358 208.173 9.80886 208.699 10.2571C209.095 10.5987 209.487 12.4941 210.013 12.7153C210.034 10.846 210.399 10.8848 211.038 10.3917C211.161 10.296 211.029 9.64537 211.087 9.56655C211.324 9.23136 211.544 9.77069 211.77 9.40578C211.824 9.31814 211.827 8.67977 211.872 8.57209C212.255 7.63217 212.881 9.06837 212.989 9.31843C213.401 10.2681 213.595 9.4379 213.912 9.81192C214.23 10.1859 213.755 10.6531 214.126 10.8801C214.889 11.3496 215.879 11.2467 216.654 11.2762C216.965 11.284 216.753 10.4318 216.797 10.4132C217.439 10.1972 218.09 11.1036 218.445 9.4063C218.89 13.7951 218.832 8.98065 219.751 9.85926C219.823 9.93032 219.915 12.0057 219.638 12.3104C219.36 12.6148 218.938 11.966 218.553 12.441C218.462 12.5524 217.94 14.4972 217.869 14.615C217.309 15.5356 217.231 12.4342 217.201 12.2638C216.866 10.4255 216.228 12.5205 216.06 12.6652C215.289 13.3284 214.637 12.8921 213.993 13.3654C213.571 13.6713 213.53 15.7028 213.199 15.6405C212.104 15.4345 211.716 12.6003 210.683 15.057C210.461 15.581 210.679 17.8016 209.884 16.0551C209.834 15.9449 209.244 14.3473 208.904 15.3573C208.861 15.4847 208.862 16.1318 208.805 16.1861C208.425 16.5374 208.172 16.0217 207.759 16.2682C207.347 16.5147 206.851 16.8823 206.378 16.6623C206.094 16.5308 205.732 15.3247 205.597 15.0293C205.217 14.1785 204.799 15.5722 204.563 14.5421C204.325 13.5069 204.795 11.936 204.168 11.2665C204.142 12.9477 204.087 14.6732 204.047 16.3639C202.668 16.3027 201.31 15.7566 199.93 15.8278C199.758 15.8383 199.932 16.7425 199.747 16.7771C198.969 16.9188 198.296 16.2728 197.488 16.5271C196.87 16.7274 196.175 17.6823 195.527 17.9211C195.14 15.996 194.162 16.6456 193.465 16.4669C193.218 16.4052 193.236 15.8914 193.062 15.7231C192.403 15.1003 192.706 16.8017 192.524 17.0684C191.75 18.2068 191.688 14.3585 190.779 14.449C190.732 14.4526 190.126 16.5006 190.043 16.6278C189.518 17.4579 189.96 15.9135 189.636 15.7601C189.049 15.4799 188.634 14.9876 187.936 15.5839C187.735 15.7606 187.237 17.0358 186.848 16.0442C186.797 15.9143 186.831 15.2366 186.789 15.1966C186.041 14.5294 186.007 16.6594 185.565 17.3775C185.124 18.0955 184.477 16.6195 184.339 16.1944C183.991 15.0949 184.618 15.7282 184.639 15.6207C184.876 14.3422 184.384 14.5586 184.012 14.4471C183.976 12.358 183.458 12.4787 183.629 14.3399C183.648 14.5432 183.938 14.351 184.012 14.4471C183.668 16.4935 183.094 16.7508 182.479 14.8295C182.191 13.9289 182.489 12.8856 181.582 13.2588C181.172 13.4272 181.313 14.8671 180.951 15.2552C180.119 16.1405 179.058 14.7854 178.216 14.9847C177.907 15.0569 178.197 15.8485 177.982 15.925C177.41 16.1302 176.94 15.5321 176.364 15.825C176.312 15.8525 176.423 16.6786 176.247 16.6861C175.35 16.7358 174.512 16.4964 173.655 16.3231C173.231 16.241 172.83 16.1742 172.374 16.1579C171.708 16.1348 170.479 16.5543 169.791 16.4405C168.584 16.2489 167.15 14.9969 166.12 15.2487C165.446 15.4094 165.562 16.2387 165.255 16.7889C164.662 17.8554 163.772 15.8694 163.654 15.5627C163.651 15.5526 164.224 15.3802 163.939 14.9458C163.797 14.058 163.66 15.5591 163.654 15.5627C163.574 15.3643 162.444 15.1342 162.218 15.2836C162.093 15.3652 162.132 16.1481 162.068 16.1759C160.533 16.8184 159.009 16.9654 157.498 16.555C157.472 16.5385 157.538 15.6665 157.476 15.6385C156.604 15.224 156.014 16.2768 155.253 16.8914C154.526 17.5066 153.928 17.2796 153.544 15.7703C152.98 15.9457 152.216 15.2653 151.76 14.8532C151.298 14.4409 151.209 16.14 151.168 16.1727C149.901 17.2227 149.194 16.2358 147.893 16.0613C147.283 15.9756 146.046 16.202 145.372 16.3778C144.826 16.5193 144.525 16.1163 144.036 16.3641C143.97 16.3972 144.026 17.1552 144.005 17.1841C143.448 18.0821 143.735 16.2351 143.627 15.903C143.234 14.6953 142.972 14.0513 142.284 14.6078C142.123 14.7352 141.62 17.3941 141.32 17.5462C140.931 17.7391 141.076 16.7856 140.682 17.0122C140.649 17.0307 140.649 17.6201 140.407 17.5912C139.27 17.4647 138.03 17.1082 136.825 17.1552C136.659 17.1593 136.862 18.0962 136.622 18.1176C135.776 18.1944 134.885 18.1853 133.992 17.9732C133.739 17.9098 133.488 17.8281 133.243 17.7251C132.981 17.6122 133.152 16.9592 133.096 16.7643C132.756 15.5855 132.235 17.2895 132.15 17.3213C130.167 18.1251 128.667 16.5659 126.649 17.2849C126.537 17.3272 125.668 19.1515 125.316 17.5777C125.291 17.473 124.936 15.8629 124.598 16.9589C124.576 17.0274 124.802 17.8567 124.397 17.769C123.996 17.6815 123.322 18.2284 122.78 17.3149C122.608 17.0272 122.21 15.4207 121.675 16.6943C121.641 16.7833 120.804 19.6661 120.527 17.6702C120.483 17.3417 120.545 15.2324 119.908 16.309C119.788 16.5178 119.999 16.9901 119.685 17.2814C119.203 17.7305 118.57 17.1604 117.965 18.0955C117.86 18.2611 117.405 19.6895 117.054 18.6C117 18.4293 117.112 17.7258 116.923 17.6456C116.048 17.2607 115.115 17.7248 114.209 17.2307C113.887 17.0571 114.06 15.9197 113.727 15.6121C113.399 15.3047 112.734 15.0064 112.382 15.5242C112.03 16.0422 112.398 17.8596 111.874 18.001C109.587 18.6153 107.348 17.5355 105.087 17.3653C104.75 17.3399 105.025 17.991 104.528 18.0002C102.7 18.0368 99.542 18.6273 97.9645 17.2391C96.6965 16.1272 98.3046 15.2944 97.333 14.8395C96.8616 14.6224 96.3485 16.7296 96.2346 16.7954C95.1291 17.4645 94.3645 16.5261 93.366 16.8082C93.161 16.8668 93.3578 17.7228 93.1834 17.7632C92.5875 17.9087 91.9626 17.5242 91.3918 17.5916C91.1357 17.6237 91.1801 18.277 90.9447 18.2256C90.3817 18.1101 89.8826 17.8335 89.3375 17.2192C89.2877 17.1633 89.6281 16.3522 89.2119 16.3203C88.5383 16.271 87.7031 15.664 86.9242 16.2849C86.6931 16.4716 86.6786 17.9642 86.1872 16.9317C86.0842 16.7161 86.2226 14.9242 85.6411 16.4709C85.5432 16.7279 84.5686 18.8137 84.0976 17.4658C83.9733 17.1111 83.6576 15.6435 83.38 15.8732C83.3424 15.9098 83.4905 16.712 83.2609 16.7896C82.4518 17.049 81.6038 16.9613 80.7731 17.2105C80.5512 17.2786 80.8795 18.109 80.549 18.1841C79.641 18.3917 78.5055 18.1783 77.6172 17.9173C77.2898 17.8194 77.5172 17.1325 77.4935 17.0577C77.112 15.8406 76.8831 17.4823 76.756 17.5779C75.9658 18.1501 75.3631 17.3781 74.6324 17.5816C74.4309 17.6357 74.5731 18.4187 74.5329 18.4885C74.1167 19.1703 74.4274 17.7645 74.1645 17.6093C73.4268 17.17 72.6116 17.2325 71.8634 17.3325C71.5889 17.3704 71.8973 18.2782 71.6511 18.3017C70.1924 18.4581 68.6932 18.372 67.2675 17.8733C67.0003 17.7778 67.1674 17.0785 67.1115 16.9189C66.7262 15.8024 66.1677 17.3269 66.0393 17.4722C65.4555 18.1359 65.2259 17.5182 64.7038 17.6346C62.1635 18.2141 59.0526 17.8155 56.6419 17.5753C53.5262 17.2662 51.097 16.6184 48.1321 16.8192C47.9424 16.8312 48.1427 17.7592 47.9795 17.7815C45.8897 18.026 43.8329 17.6866 41.7175 17.9857C41.5457 18.0085 41.8063 18.8865 41.5314 18.9528C40.9652 19.0952 40.2717 19.0579 39.6767 18.7861C39.3924 18.6552 39.7583 17.8926 39.4725 17.7762C38.8055 17.5035 38.1148 17.4529 37.4512 17.6066C37.1608 17.6742 37.6172 18.5674 37.2392 18.5849C35.6593 18.6705 34.0969 18.7856 32.5691 18.5979C31.5708 18.4853 30.6374 18.2572 29.64 17.8417C29.4584 17.7663 29.2511 15.9387 28.8842 16.3002C28.8696 16.8093 28.8874 17.4073 28.8897 17.951C25.2043 18.3436 21.4942 17.8162 17.8166 17.8394C17.6552 17.8408 17.9655 18.802 17.6542 18.8097C15.9133 18.8532 14.2091 19.1821 12.3949 18.2855C12.2126 18.198 12.2582 16.4867 11.7293 16.7658C11.6281 16.8168 10.8722 17.0745 10.6766 17.4536C10.6507 17.5107 10.8292 18.3014 10.5713 18.3351C9.1084 18.5154 7.56402 18.4004 6.09495 17.9843C5.84944 17.9161 6.0646 17.0555 5.89027 16.9995C4.67431 16.6075 3.44525 17.3215 2.23686 16.6192C1.41849 16.1453 1.62513 14.664 1.12052 13.2431C1.06111 13.043 0.516048 13.032 0.467392 12.1908C0.358972 10.0794 0.500543 7.76011 0.350809 5.51059C0.299885 5.0283 -0.0414525 5.55314 0.151872 4.37929C0.153379 4.30193 0.435749 3.90494 0.518751 3.50221C0.569811 3.22464 0.420357 2.37568 0.529501 2.01829C0.636062 1.66121 0.831768 2.36869 1.06034 1.94172C1.30199 1.50876 1.11815 0.54519 1.64792 0.399599ZM149.732 13.0135C149.331 12.189 149.213 15.1783 149.677 14.4714C149.699 14.4337 149.753 13.0539 149.732 13.0135ZM201.325 13.5004C200.769 12.1801 200.385 14.119 200.775 15.1387C201.166 16.1572 201.494 13.9006 201.325 13.5004ZM207.106 12.5457C206.455 11.5048 206.347 15.746 207.048 14.8893C207.089 14.8409 207.144 12.6061 207.106 12.5457ZM3.02632 12.7252C3.02338 12.6856 2.66599 12.6671 2.66533 12.7065C2.5352 13.6654 3.23119 13.7028 3.02632 12.7252ZM212.839 11.501C212.637 10.9272 212.051 11.5892 212.303 12.3027C212.507 12.8768 213.091 12.2148 212.839 11.501ZM127.583 9.55825C127.577 9.51362 127.33 9.47139 127.333 9.72336C127.343 10.5349 127.688 10.3088 127.583 9.55825ZM222.581 11.4536C221.143 11.2939 220.269 7.79038 221.837 8.18573C222.121 8.25727 221.226 9.30297 221.587 9.61883C222.247 10.1943 222.686 7.99452 223.361 9.17328C223.484 9.38904 222.663 11.4704 222.579 11.4584C222.58 11.4568 222.581 11.4552 222.581 11.4536ZM149.56 9.41703C149.553 9.37732 149.214 9.33344 149.205 9.3725C149.003 10.3184 149.686 10.4074 149.56 9.41703ZM113.176 7.59397C113.158 7.50955 112.368 7.42498 112.341 7.50245C111.917 9.05217 113.515 9.22774 113.176 7.59397ZM172.62 7.93647C173.024 6.99119 173.45 6.88879 173.729 8.09491C173.351 8.02267 172.999 8.00486 172.62 7.93647Z" fill="#28C2FF"/>
</svg>
